<svg class="svg-icon" style="width: 1em;height: 1em;vertical-align: middle;fill: currentColor;overflow: hidden;" viewBox="0 0 1024 1024" version="1.1" xmlns="http://www.w3.org/2000/svg"><path d="M1024 512c0 282.767-229.242 512-512 512C229.233 1024 0 794.767 0 512S229.233 0 512 0c282.758 0 512 229.233 512 512z" fill="#EEF5FF" /><path d="M873.002 282.042v496.719c0 29.839-24.615 54.247-54.697 54.247h-612.61c-30.085 0-54.697-24.408-54.697-54.247V282.042c0-29.84 24.612-54.248 54.697-54.248h612.609c30.083 0 54.698 24.408 54.698 54.248z" fill="#CCCCCC" /><path d="M860.651 280.577v486.051c0 30.093-23.771 54.708-52.826 54.708H216.178c-29.056 0-52.827-24.615-52.827-54.708V280.577c0-30.084 23.771-54.702 52.827-54.702h591.647c29.056 0 52.826 24.618 52.826 54.702z" fill="#FFFFFF" /><path d="M873.002 277.64v80.428H150.998V277.64c0-30.084 24.612-54.702 54.697-54.702h612.609c30.083 0 54.698 24.618 54.698 54.702z" fill="#1F95FF" /><path d="M806.213 230.883H217.789c-28.899 0-52.54 18.81-52.54 41.799v14.516c0-22.994 23.641-41.801 52.54-41.801h588.424c28.894 0 52.537 18.807 52.537 41.801v-14.516c0-22.989-23.644-41.799-52.537-41.799z" fill="#F2F2F2" /><path d="M759.254 287.213c0 12.879 7.661 23.333 17.103 23.333 9.446 0 17.11-10.454 17.11-23.333 0-12.875-7.664-23.323-17.11-23.323-9.442 0.001-17.103 10.448-17.103 23.323zM652.809 287.213c0 12.879 7.661 23.333 17.102 23.333 9.447 0 17.109-10.454 17.109-23.333 0-12.875-7.662-23.323-17.109-23.323-9.441 0.001-17.102 10.448-17.102 23.323zM546.352 287.213c0 12.879 7.661 23.333 17.1 23.333 9.449 0 17.111-10.454 17.111-23.333 0-12.875-7.662-23.323-17.111-23.323-9.439 0.001-17.1 10.448-17.1 23.323zM439.888 287.213c0 12.879 7.663 23.333 17.104 23.333 9.447 0 17.108-10.454 17.108-23.333 0-12.875-7.662-23.323-17.108-23.323-9.441 0.001-17.104 10.448-17.104 23.323zM333.781 287.213c0 12.879 7.663 23.333 17.102 23.333 9.448 0 17.111-10.454 17.111-23.333 0-12.875-7.663-23.323-17.111-23.323-9.439 0.001-17.102 10.448-17.102 23.323zM226.966 287.213c0 12.879 7.662 23.333 17.102 23.333 9.448 0 17.111-10.454 17.111-23.333 0-12.875-7.663-23.323-17.111-23.323-9.44 0.001-17.102 10.448-17.102 23.323z" fill="#4D4D4D" /><path d="M786.739 204.796v81.012c0 7.024-4.664 12.772-10.361 12.772-5.702 0-10.373-5.748-10.373-12.772v-81.012c0-7.025 4.671-12.768 10.373-12.768 5.697 0.001 10.361 5.743 10.361 12.768z" fill="#FFFFFF" /><path d="M776.378 299.616c-6.293 0-11.407-6.195-11.407-13.808v-81.012c0-7.612 5.114-13.805 11.407-13.805 6.284 0 11.398 6.193 11.398 13.805v81.012c0 7.613-5.114 13.808-11.398 13.808z m0-106.551c-5.151 0-9.339 5.261-9.339 11.731v81.012c0 6.469 4.188 11.734 9.339 11.734 5.142 0 9.323-5.265 9.323-11.734v-81.012c0-6.47-4.181-11.731-9.323-11.731z" fill="#B3B3B3" /><path d="M680.279 204.796v81.012c0 7.024-4.664 12.772-10.361 12.772-5.703 0-10.373-5.748-10.373-12.772v-81.012c0-7.025 4.67-12.768 10.373-12.768 5.697 0.001 10.361 5.743 10.361 12.768z" fill="#FFFFFF" /><path d="M669.918 299.616c-6.293 0-11.409-6.195-11.409-13.808v-81.012c0-7.612 5.116-13.805 11.409-13.805 6.284 0 11.398 6.193 11.398 13.805v81.012c0 7.613-5.114 13.808-11.398 13.808z m0-106.551c-5.149 0-9.336 5.261-9.336 11.731v81.012c0 6.469 4.187 11.734 9.336 11.734 5.14 0 9.324-5.265 9.324-11.734v-81.012c0-6.47-4.184-11.731-9.324-11.731z" fill="#B3B3B3" /><path d="M573.819 204.796v81.012c0 7.024-4.663 12.772-10.362 12.772-5.702 0-10.373-5.748-10.373-12.772v-81.012c0-7.025 4.671-12.768 10.373-12.768 5.699 0.001 10.362 5.743 10.362 12.768z" fill="#FFFFFF" /><path d="M563.457 299.616c-6.29 0-11.408-6.195-11.408-13.808v-81.012c0-7.612 5.118-13.805 11.408-13.805 6.286 0 11.4 6.193 11.4 13.805v81.012c0 7.613-5.114 13.808-11.4 13.808z m0-106.551c-5.147 0-9.334 5.261-9.334 11.731v81.012c0 6.469 4.187 11.734 9.334 11.734 5.142 0 9.324-5.265 9.324-11.734v-81.012c0-6.47-4.182-11.731-9.324-11.731z" fill="#B3B3B3" /><path d="M467.359 204.796v81.012c0 7.024-4.662 12.772-10.36 12.772-5.703 0-10.374-5.748-10.374-12.772v-81.012c0-7.025 4.67-12.768 10.374-12.768 5.698 0.001 10.36 5.743 10.36 12.768z" fill="#FFFFFF" /><path d="M456.999 299.616c-6.292 0-11.41-6.195-11.41-13.808v-81.012c0-7.612 5.118-13.805 11.41-13.805 6.284 0 11.397 6.193 11.397 13.805v81.012c0 7.613-5.114 13.808-11.397 13.808z m0-106.551c-5.149 0-9.336 5.261-9.336 11.731v81.012c0 6.469 4.187 11.734 9.336 11.734 5.142 0 9.324-5.265 9.324-11.734v-81.012c-0.001-6.47-4.183-11.731-9.324-11.731z" fill="#B3B3B3" /><path d="M254.437 204.796v81.012c0 7.024-4.662 12.772-10.359 12.772-5.702 0-10.373-5.748-10.373-12.772v-81.012c0-7.025 4.67-12.768 10.373-12.768 5.697 0.001 10.359 5.743 10.359 12.768z" fill="#FFFFFF" /><path d="M244.078 299.616c-6.292 0-11.41-6.195-11.41-13.808v-81.012c0-7.612 5.118-13.805 11.41-13.805 6.286 0 11.396 6.193 11.396 13.805v81.012c0 7.613-5.11 13.808-11.396 13.808z m0-106.551c-5.149 0-9.336 5.261-9.336 11.731v81.012c0 6.469 4.188 11.734 9.336 11.734 5.143 0 9.323-5.265 9.323-11.734v-81.012c-0.001-6.47-4.18-11.731-9.323-11.731z" fill="#B3B3B3" /><path d="M360.899 204.796v81.012c0 7.024-4.663 12.772-10.363 12.772-5.702 0-10.371-5.748-10.371-12.772v-81.012c0-7.025 4.669-12.768 10.371-12.768 5.701 0.001 10.363 5.743 10.363 12.768z" fill="#FFFFFF" /><path d="M350.537 299.616c-6.291 0-11.408-6.195-11.408-13.808v-81.012c0-7.612 5.117-13.805 11.408-13.805 6.286 0 11.398 6.193 11.398 13.805v81.012c0 7.613-5.112 13.808-11.398 13.808z m0-106.551c-5.147 0-9.335 5.261-9.335 11.731v81.012c0 6.469 4.188 11.734 9.335 11.734 5.143 0 9.326-5.265 9.326-11.734v-81.012c0-6.47-4.183-11.731-9.326-11.731z" fill="#B3B3B3" /><path d="M553.396 439.151a7.272 7.272 0 0 1-7.272 7.272H501.04a7.27 7.27 0 0 1-7.272-7.272v-45.086a7.27 7.27 0 0 1 7.272-7.273h45.084a7.27 7.27 0 0 1 7.272 7.273v45.086zM366.168 439.151a7.271 7.271 0 0 1-7.272 7.272h-45.085a7.27 7.27 0 0 1-7.271-7.272v-45.086a7.27 7.27 0 0 1 7.271-7.273h45.085a7.27 7.27 0 0 1 7.272 7.273v45.086zM459.781 439.151a7.27 7.27 0 0 1-7.271 7.272h-45.085a7.27 7.27 0 0 1-7.271-7.272v-45.086a7.27 7.27 0 0 1 7.271-7.273h45.085a7.27 7.27 0 0 1 7.271 7.273v45.086zM266.675 527.042a7.269 7.269 0 0 1-7.271 7.271h-45.085a7.271 7.271 0 0 1-7.271-7.271v-45.087a7.27 7.27 0 0 1 7.271-7.272h45.085a7.268 7.268 0 0 1 7.271 7.272v45.087z" fill="#DFF2FC" /><path d="M360.291 527.042a7.272 7.272 0 0 1-7.273 7.271h-45.083a7.27 7.27 0 0 1-7.272-7.271v-45.087a7.27 7.27 0 0 1 7.272-7.272h45.083a7.27 7.27 0 0 1 7.273 7.272v45.087zM453.904 527.042a7.27 7.27 0 0 1-7.271 7.271h-45.085a7.272 7.272 0 0 1-7.273-7.271v-45.087a7.271 7.271 0 0 1 7.273-7.272h45.085a7.27 7.27 0 0 1 7.271 7.272v45.087zM547.519 527.042a7.27 7.27 0 0 1-7.272 7.271h-45.085a7.271 7.271 0 0 1-7.272-7.271v-45.087a7.27 7.27 0 0 1 7.272-7.272h45.085a7.27 7.27 0 0 1 7.272 7.272v45.087zM641.133 527.042a7.27 7.27 0 0 1-7.272 7.271h-45.085a7.272 7.272 0 0 1-7.273-7.271v-45.087a7.271 7.271 0 0 1 7.273-7.272h45.085a7.27 7.27 0 0 1 7.272 7.272v45.087zM734.746 527.042a7.271 7.271 0 0 1-7.271 7.271h-45.086a7.272 7.272 0 0 1-7.271-7.271v-45.087a7.271 7.271 0 0 1 7.271-7.272h45.086a7.27 7.27 0 0 1 7.271 7.272v45.087z" fill="#AFE2FF" /><path d="M828.36 527.042a7.271 7.271 0 0 1-7.271 7.271h-45.085a7.274 7.274 0 0 1-7.275-7.271v-45.087a7.274 7.274 0 0 1 7.275-7.272h45.085a7.27 7.27 0 0 1 7.271 7.272v45.087zM266.675 609.056a7.269 7.269 0 0 1-7.271 7.272h-45.085a7.271 7.271 0 0 1-7.271-7.272v-45.089a7.272 7.272 0 0 1 7.271-7.271h45.085a7.27 7.27 0 0 1 7.271 7.271v45.089z" fill="#DFF2FC" /><path d="M360.291 609.056a7.272 7.272 0 0 1-7.273 7.272h-45.083a7.271 7.271 0 0 1-7.272-7.272v-45.089a7.271 7.271 0 0 1 7.272-7.271h45.083a7.273 7.273 0 0 1 7.273 7.271v45.089zM453.904 609.056a7.27 7.27 0 0 1-7.271 7.272h-45.085a7.272 7.272 0 0 1-7.273-7.272v-45.089a7.273 7.273 0 0 1 7.273-7.271h45.085a7.272 7.272 0 0 1 7.271 7.271v45.089zM547.519 609.056a7.271 7.271 0 0 1-7.272 7.272h-45.085a7.272 7.272 0 0 1-7.272-7.272v-45.089a7.272 7.272 0 0 1 7.272-7.271h45.085a7.272 7.272 0 0 1 7.272 7.271v45.089zM641.133 609.056a7.27 7.27 0 0 1-7.272 7.272h-45.085a7.272 7.272 0 0 1-7.273-7.272v-45.089a7.273 7.273 0 0 1 7.273-7.271h45.085a7.271 7.271 0 0 1 7.272 7.271v45.089zM734.746 609.056a7.271 7.271 0 0 1-7.271 7.272h-45.086a7.272 7.272 0 0 1-7.271-7.272v-45.089a7.273 7.273 0 0 1 7.271-7.271h45.086a7.272 7.272 0 0 1 7.271 7.271v45.089z" fill="#AFE2FF" /><path d="M828.36 609.056a7.271 7.271 0 0 1-7.271 7.272h-45.085a7.274 7.274 0 0 1-7.275-7.272v-45.089a7.275 7.275 0 0 1 7.275-7.271h45.085a7.272 7.272 0 0 1 7.271 7.271v45.089zM266.675 691.071a7.27 7.27 0 0 1-7.271 7.271h-45.085a7.271 7.271 0 0 1-7.271-7.271V645.98a7.272 7.272 0 0 1 7.271-7.271h45.085a7.27 7.27 0 0 1 7.271 7.271v45.091z" fill="#DFF2FC" /><path d="M360.291 691.071a7.272 7.272 0 0 1-7.273 7.271h-45.083a7.27 7.27 0 0 1-7.272-7.271V645.98a7.271 7.271 0 0 1 7.272-7.271h45.083a7.273 7.273 0 0 1 7.273 7.271v45.091zM453.904 691.071a7.271 7.271 0 0 1-7.271 7.271h-45.085a7.272 7.272 0 0 1-7.273-7.271V645.98a7.273 7.273 0 0 1 7.273-7.271h45.085a7.272 7.272 0 0 1 7.271 7.271v45.091zM547.519 691.071a7.271 7.271 0 0 1-7.272 7.271h-45.085a7.271 7.271 0 0 1-7.272-7.271V645.98a7.272 7.272 0 0 1 7.272-7.271h45.085a7.272 7.272 0 0 1 7.272 7.271v45.091zM641.133 691.071a7.27 7.27 0 0 1-7.272 7.271h-45.085a7.272 7.272 0 0 1-7.273-7.271V645.98a7.273 7.273 0 0 1 7.273-7.271h45.085a7.271 7.271 0 0 1 7.272 7.271v45.091zM734.746 691.071a7.272 7.272 0 0 1-7.271 7.271h-45.086a7.272 7.272 0 0 1-7.271-7.271V645.98a7.273 7.273 0 0 1 7.271-7.271h45.086a7.272 7.272 0 0 1 7.271 7.271v45.091z" fill="#AFE2FF" /><path d="M828.36 691.071a7.272 7.272 0 0 1-7.271 7.271h-45.085a7.272 7.272 0 0 1-7.273-7.271V645.98a7.274 7.274 0 0 1 7.273-7.271h45.085a7.272 7.272 0 0 1 7.271 7.271v45.091zM266.675 782.881a7.27 7.27 0 0 1-7.271 7.273h-45.085a7.272 7.272 0 0 1-7.271-7.273v-45.088a7.271 7.271 0 0 1 7.271-7.271h45.085a7.27 7.27 0 0 1 7.271 7.271v45.088z" fill="#DFF2FC" /><path d="M734.746 445.028a7.273 7.273 0 0 1-7.271 7.272h-45.086a7.273 7.273 0 0 1-7.271-7.272v-45.089a7.271 7.271 0 0 1 7.271-7.269h45.086a7.27 7.27 0 0 1 7.271 7.269v45.089zM362.739 782.881a7.271 7.271 0 0 1-7.271 7.273h-45.085a7.271 7.271 0 0 1-7.271-7.273v-45.088a7.27 7.27 0 0 1 7.271-7.271h45.085a7.272 7.272 0 0 1 7.271 7.271v45.088z" fill="#AFE2FF" /><path d="M828.36 445.028a7.273 7.273 0 0 1-7.271 7.272h-45.085a7.275 7.275 0 0 1-7.275-7.272v-45.089c0-4.014 3.259-7.269 7.275-7.269h45.085a7.27 7.27 0 0 1 7.271 7.269v45.089z" fill="#DFF2FC" /><path d="M458.803 782.881a7.272 7.272 0 0 1-7.273 7.273h-45.084a7.27 7.27 0 0 1-7.272-7.273v-45.088a7.27 7.27 0 0 1 7.272-7.271h45.084a7.273 7.273 0 0 1 7.273 7.271v45.088z" fill="#AFE2FF" /><path d="M360.291 445.038a7.275 7.275 0 0 1-7.273 7.275h-45.083a7.274 7.274 0 0 1-7.272-7.275v-45.109a7.27 7.27 0 0 1 7.272-7.271h45.083a7.271 7.271 0 0 1 7.273 7.271v45.109zM453.904 445.028a7.271 7.271 0 0 1-7.271 7.272h-45.085a7.272 7.272 0 0 1-7.273-7.272v-45.089a7.27 7.27 0 0 1 7.273-7.269h45.085a7.27 7.27 0 0 1 7.271 7.269v45.089zM547.519 445.027a7.272 7.272 0 0 1-7.272 7.273H495.16a7.272 7.272 0 0 1-7.271-7.273v-45.089a7.27 7.27 0 0 1 7.271-7.268h45.086a7.269 7.269 0 0 1 7.272 7.268v45.089z" fill="#1F95FF" /><path d="M641.133 445.028a7.272 7.272 0 0 1-7.272 7.272h-45.085a7.272 7.272 0 0 1-7.273-7.272v-45.089a7.271 7.271 0 0 1 7.273-7.269h45.085a7.27 7.27 0 0 1 7.272 7.269v45.089z" fill="#AFE2FF" /><path d="M328.926 428.688c8.953-8.948 25.995-26.171 34.671-34.874 1.542-1.549 3.289-2.551 5.524-2.309 2.398 0.26 4.195 1.512 5.12 3.751 0.938 2.28 0.706 4.545-1.009 6.367-2.907 3.097-5.937 6.076-8.937 9.083-7.215 7.231-22.787 22.995-30.01 30.22-3.563 3.564-6.933 3.55-10.494-0.021-5.786-5.801-11.613-11.561-17.361-17.399-3.264-3.316-2.518-8.228 1.441-10.182 2.505-1.237 5.188-0.697 7.457 1.556 3.66 3.635 7.305 7.287 10.941 10.948 0.888 0.892 1.717 1.842 2.657 2.86zM422.229 428.688c8.953-8.948 25.996-26.171 34.671-34.874 1.545-1.549 3.29-2.551 5.525-2.309 2.398 0.26 4.197 1.512 5.119 3.751 0.938 2.28 0.706 4.545-1.008 6.367-2.909 3.097-5.938 6.076-8.938 9.083-7.217 7.231-22.786 22.995-30.01 30.22-3.565 3.564-6.932 3.55-10.494-0.021-5.787-5.801-11.613-11.561-17.36-17.399-3.264-3.316-2.517-8.228 1.439-10.182 2.504-1.237 5.187-0.697 7.457 1.556a2171.77 2171.77 0 0 1 10.941 10.948c0.889 0.892 1.718 1.842 2.658 2.86zM516.57 428.688c8.952-8.948 25.995-26.171 34.672-34.874 1.543-1.549 3.289-2.551 5.524-2.309 2.397 0.26 4.195 1.512 5.118 3.751 0.938 2.28 0.707 4.545-1.008 6.367-2.908 3.097-5.938 6.076-8.938 9.083-7.217 7.231-22.786 22.995-30.012 30.22-3.563 3.564-6.933 3.55-10.495-0.021-5.783-5.801-11.611-11.561-17.359-17.399-3.262-3.316-2.516-8.228 1.439-10.182 2.505-1.237 5.189-0.697 7.458 1.556 3.665 3.635 7.305 7.287 10.941 10.948 0.892 0.892 1.718 1.842 2.66 2.86z" fill="#FFFF00" /></svg>