<?xml version="1.0" encoding="utf-8"?>
<!-- Generator: Adobe Illustrator 27.5.0, SVG Export Plug-In . SVG Version: 6.00 Build 0)  -->
<svg version="1.1" xmlns="http://www.w3.org/2000/svg" xmlns:xlink="http://www.w3.org/1999/xlink" x="0px" y="0px"
	 viewBox="0 0 1122 1122" style="enable-background:new 0 0 1122 1122;" xml:space="preserve">
<g id="Bg">
	<g>
		<g>
			<rect style="fill:#FFFFFF;" width="1122" height="1122"/>
		</g>
	</g>
</g>
<g id="Object">
	<g>
		<path style="fill:#616E7D;" d="M301.552,256.379c-11.893,0-23.531,4.814-31.937,13.226c-8.424,8.413-13.236,20.035-13.236,31.931
			v518.927c0,11.886,4.812,23.519,13.236,31.928c8.407,8.404,20.044,13.23,31.937,13.23h518.903c11.893,0,23.531-4.826,31.937-13.23
			c8.412-8.409,13.229-20.042,13.229-31.928V301.536c0-11.896-4.817-23.518-13.229-31.931c-8.407-8.412-20.044-13.226-31.937-13.226
			H301.552z M421.037,317.471c16.898,0,30.612,13.711,30.612,30.617c0,16.912-13.714,30.62-30.612,30.62
			c-16.921,0-30.629-13.708-30.629-30.62C390.408,331.182,404.116,317.471,421.037,317.471z M327.569,317.471
			c16.922,0,30.612,13.711,30.612,30.617c0,16.912-13.69,30.62-30.612,30.62c-16.903,0-30.611-13.708-30.611-30.62
			C296.958,331.182,310.666,317.471,327.569,317.471z M825.46,804.081H296.958V422.214H825.46V804.081z"/>
		<rect x="347.71" y="657.061" style="fill:#FFFFFF;" width="85.395" height="80.965"/>
		<rect x="347.625" y="488.182" style="fill:#FFFFFF;" width="85.576" height="79.367"/>
		<path style="fill:#FFFFFF;" d="M296.958,804.081H825.46V422.214H296.958V804.081z M491.919,477.805h294.868v34.225H491.919
			V477.805z M491.919,530.401h294.868v34.233H491.919V530.401z M491.919,654.126h294.868v34.236H491.919V654.126z M491.919,706.733
			h294.868v34.227H491.919V706.733z M326.867,477.805c0-2.736,1.102-5.41,3.026-7.344c1.943-1.934,4.6-3.038,7.348-3.038h106.346
			c2.735,0,5.411,1.108,7.359,3.038c1.901,1.934,3.026,4.608,3.026,7.344v100.122c0,2.735-1.125,5.408-3.026,7.341
			c-1.949,1.93-4.624,3.041-7.359,3.041H337.241c-2.748,0-5.405-1.107-7.348-3.041c-1.924-1.934-3.026-4.606-3.026-7.341V477.805z
			 M326.752,646.585c0-2.756,1.132-5.459,3.08-7.408c1.949-1.952,4.648-3.068,7.408-3.068h106.346c2.748,0,5.447,1.117,7.396,3.068
			c1.961,1.949,3.08,4.651,3.08,7.408v101.917c0,2.757-1.119,5.459-3.08,7.408c-1.949,1.952-4.648,3.069-7.396,3.069H337.241
			c-2.76,0-5.459-1.117-7.408-3.069c-1.948-1.948-3.08-4.65-3.08-7.408V646.585z"/>
		<rect x="491.919" y="477.805" style="fill:#82BFAB;" width="294.868" height="34.225"/>
		<rect x="491.919" y="530.401" style="fill:#82BFAB;" width="294.868" height="34.233"/>
		<rect x="491.919" y="654.126" style="fill:#82BFAB;" width="294.868" height="34.236"/>
		<rect x="491.919" y="706.733" style="fill:#82BFAB;" width="294.868" height="34.227"/>
		<path style="fill:#82BFAB;" d="M337.241,467.423c-2.748,0-5.405,1.104-7.348,3.038c-1.924,1.934-3.026,4.608-3.026,7.344v100.122
			c0,2.735,1.102,5.408,3.026,7.341c1.943,1.934,4.6,3.041,7.348,3.041h106.346c2.735,0,5.411-1.111,7.359-3.041
			c1.901-1.934,3.026-4.606,3.026-7.341V477.805c0-2.736-1.125-5.41-3.026-7.344c-1.949-1.93-4.624-3.038-7.359-3.038H337.241z
			 M433.202,567.548h-85.576v-79.366h85.576V567.548z"/>
		<path style="fill:#82BFAB;" d="M337.241,636.109c-2.76,0-5.459,1.117-7.408,3.068c-1.948,1.949-3.08,4.651-3.08,7.408v101.917
			c0,2.757,1.132,5.459,3.08,7.408c1.949,1.952,4.648,3.069,7.408,3.069h106.346c2.748,0,5.447-1.117,7.396-3.069
			c1.961-1.948,3.08-4.65,3.08-7.408V646.585c0-2.756-1.119-5.459-3.08-7.408c-1.949-1.952-4.648-3.068-7.396-3.068H337.241z
			 M433.105,738.026H347.71v-80.965h85.395V738.026z"/>
		<path style="fill:#AAD4C8;" d="M390.408,348.088c0,16.912,13.708,30.62,30.629,30.62c16.898,0,30.612-13.708,30.612-30.62
			c0-16.906-13.714-30.617-30.612-30.617C404.116,317.471,390.408,331.182,390.408,348.088z"/>
		<path style="fill:#82BFAB;" d="M296.958,348.088c0,16.912,13.708,30.62,30.611,30.62c16.922,0,30.612-13.708,30.612-30.62
			c0-16.906-13.69-30.617-30.612-30.617C310.666,317.471,296.958,331.182,296.958,348.088z"/>
	</g>
</g>
</svg>
