<?xml version="1.0" encoding="utf-8"?>
<!-- Generator: Adobe Illustrator 27.5.0, SVG Export Plug-In . SVG Version: 6.00 Build 0)  -->
<svg version="1.1" xmlns="http://www.w3.org/2000/svg" xmlns:xlink="http://www.w3.org/1999/xlink" x="0px" y="0px"
	 viewBox="0 0 1122 1122" style="enable-background:new 0 0 1122 1122;" xml:space="preserve">
<g id="Bg">
	<rect style="fill:#FFFFFF;" width="1122" height="1122"/>
</g>
<g id="Object">
	<g>
		<path style="fill:#616E7D;" d="M883.965,369.281c5.755,0,10.428-10.518,10.428-23.497c0-12.972-4.672-23.506-10.428-23.506
			H276.477c-5.761,0-10.421,10.533-10.421,23.506c0,12.979,4.66,23.497,10.421,23.497h23.76v-23.497H862.22v23.497H883.965z"/>
		<path style="fill:#616E7D;" d="M862.22,743.474v10.419H450.323c-0.302-3.529-0.726-7.018-1.422-10.419
			c-8.219-39.871-43.49-69.865-85.806-69.865h-35.925h-26.932h-45.003c-48.392,0-87.628,39.23-87.628,87.603v42.51h283.085V764.32
			h433.273c5.755,0,10.428-4.664,10.428-10.428c0-5.75-4.672-10.419-10.428-10.419H862.22z M343.873,788.692h-12.945h-43.539H274.45
			l-20.111-105.521c1.991-0.151,3.958-0.299,5.967-0.299h97.704c2.015,0,3.982,0.148,5.949,0.299L343.873,788.692z"/>
		<path style="fill:#616E7D;" d="M300.238,673.609h26.932v-10.558c-5.822,1.143-11.844,1.779-18.004,1.779
			c-3.008,0-5.974-0.173-8.927-0.454V673.609z"/>
		<path style="fill:#616E7D;" d="M448.9,743.474c0.696,3.401,1.12,6.89,1.422,10.419H862.22v-10.419V369.281v-23.497H300.238v23.497
			v109.621c2.954-0.278,5.919-0.451,8.927-0.451c6.161,0,12.183,0.632,18.004,1.776V369.281h508.119v374.193H448.9z"/>
		<path style="fill:#FFFFFF;" d="M327.169,663.051v10.558h35.925c42.316,0,77.587,29.994,85.806,69.865h386.388V369.281H327.169
			v110.947c42.831,8.394,75.167,46.107,75.167,91.407C402.336,616.937,370,654.657,327.169,663.051z M792.125,660.869l-0.569,0.723
			h-13.593l14.161-17.911V660.869z M792.125,639.233l-17.66,22.359h-13.617l31.277-39.55V639.233z M792.125,617.594l-34.775,43.998
			h-13.593l48.368-61.177V617.594z M792.125,595.964l-51.89,65.628h-13.569l65.459-82.819V595.964z M792.125,574.34l-68.993,87.253
			h-13.605l82.598-104.459V574.34z M701.574,412.257h13.436l-13.436,16.994V412.257z M701.574,433.687l16.946-21.43h13.592
			l-30.538,38.624V433.687z M701.574,455.326l34.061-43.069h13.593l-47.654,60.263V455.326z M701.574,476.962l51.176-64.705h13.593
			l-64.769,81.899V476.962z M701.574,498.59l68.261-86.333h13.605l-81.866,103.533V498.59z M701.574,520.229l85.377-107.972h5.174
			v10.633l-90.551,114.523V520.229z M701.574,541.862l90.551-114.523v17.185l-90.551,114.529V541.862z M701.574,563.495
			l90.551-114.532v17.197l-90.551,114.529V563.495z M701.574,585.131l90.551-114.526v17.185l-90.551,114.526V585.131z
			 M701.574,606.758l90.551-114.523v17.194l-90.551,114.529V606.758z M701.574,628.406l90.551-114.535v17.191l-90.551,114.532
			V628.406z M701.574,650.033l90.551-114.526v17.191l-86.108,108.895h-4.442V650.033z M571.794,498.423h90.575v163.169h-90.575
			V498.423z M442.038,576.395h90.551v85.197h-90.551V576.395z"/>
		<path style="fill:#616E7D;" d="M309.165,478.451c-3.008,0-5.974,0.172-8.927,0.451c-47.29,4.494-84.257,44.286-84.257,92.733
			c0,48.459,36.966,88.248,84.257,92.742c2.954,0.281,5.919,0.454,8.927,0.454c6.161,0,12.183-0.636,18.004-1.779
			c42.831-8.394,75.167-46.114,75.167-91.417c0-45.3-32.336-83.013-75.167-91.407C321.348,479.083,315.326,478.451,309.165,478.451z
			"/>
		<path style="fill:#FFFFFF;" d="M320.125,717.741h0.024l10.779,70.951h12.945l20.087-105.521c-1.966-0.151-3.933-0.299-5.949-0.299
			h-97.704c-2.01,0-3.976,0.148-5.967,0.299l20.111,105.521h12.939l10.778-70.951h0.4l-10.603-19.479h42.388l-10.591,19.479H320.125
			z"/>
		<polygon style="fill:#AAD4C8;" points="287.389,788.692 330.928,788.692 320.149,717.741 320.125,717.741 319.762,717.741 
			330.353,698.262 287.964,698.262 298.568,717.741 298.168,717.741 		"/>
		<rect x="442.038" y="576.395" style="fill:#616E7D;" width="90.551" height="85.197"/>
		<rect x="571.794" y="498.423" style="fill:#616E7D;" width="90.575" height="163.169"/>
		<polygon style="fill:#AAD4C8;" points="792.125,595.964 792.125,578.773 726.666,661.592 740.235,661.592 		"/>
		<polygon style="fill:#AAD4C8;" points="792.125,574.34 792.125,557.134 709.526,661.592 723.131,661.592 		"/>
		<polygon style="fill:#AAD4C8;" points="715.01,412.257 701.574,412.257 701.574,429.251 		"/>
		<polygon style="fill:#AAD4C8;" points="792.125,466.16 792.125,448.963 701.574,563.495 701.574,580.688 		"/>
		<polygon style="fill:#AAD4C8;" points="792.125,487.789 792.125,470.604 701.574,585.131 701.574,602.316 		"/>
		<polygon style="fill:#AAD4C8;" points="706.016,661.592 792.125,552.698 792.125,535.507 701.574,650.033 701.574,661.592 		"/>
		<polygon style="fill:#AAD4C8;" points="792.125,444.523 792.125,427.339 701.574,541.862 701.574,559.052 		"/>
		<polygon style="fill:#AAD4C8;" points="792.125,531.062 792.125,513.871 701.574,628.406 701.574,645.594 		"/>
		<polygon style="fill:#AAD4C8;" points="701.574,450.881 732.112,412.257 718.52,412.257 701.574,433.687 		"/>
		<polygon style="fill:#AAD4C8;" points="792.125,509.429 792.125,492.235 701.574,606.758 701.574,623.958 		"/>
		<polygon style="fill:#AAD4C8;" points="701.574,494.156 766.343,412.257 752.75,412.257 701.574,476.962 		"/>
		<polygon style="fill:#AAD4C8;" points="792.125,639.233 792.125,622.042 760.848,661.592 774.465,661.592 		"/>
		<polygon style="fill:#AAD4C8;" points="792.125,660.869 792.125,643.682 777.963,661.592 791.556,661.592 		"/>
		<polygon style="fill:#AAD4C8;" points="701.574,515.789 783.44,412.257 769.835,412.257 701.574,498.59 		"/>
		<polygon style="fill:#AAD4C8;" points="792.125,617.594 792.125,600.415 743.757,661.592 757.35,661.592 		"/>
		<polygon style="fill:#AAD4C8;" points="701.574,472.52 749.228,412.257 735.635,412.257 701.574,455.326 		"/>
		<polygon style="fill:#AAD4C8;" points="701.574,537.413 792.125,422.89 792.125,412.257 786.951,412.257 701.574,520.229 		"/>
	</g>
</g>
</svg>
