<?xml version="1.0" encoding="utf-8"?>
<!-- Generator: Adobe Illustrator 27.5.0, SVG Export Plug-In . SVG Version: 6.00 Build 0)  -->
<svg version="1.1" id="Layer_1" xmlns="http://www.w3.org/2000/svg" xmlns:xlink="http://www.w3.org/1999/xlink" x="0px" y="0px"
	 viewBox="0 0 800 800" style="enable-background:new 0 0 800 800;" xml:space="preserve">
<g>
	<path style="opacity:0.3;fill:#808285;" d="M628.366,440.108l-1.554-7.858c-16.377,3.239-32.154-6.779-35.238-22.376
		l-273.638,54.123c3.085,15.597-7.69,30.867-24.067,34.106l1.564,7.905c4.484,0.416,8.305,3.571,9.184,8.018
		c0.88,4.447-1.452,8.818-5.44,10.91l0.176,0.89c4.484,0.416,8.305,3.571,9.184,8.018c0.88,4.447-1.452,8.818-5.44,10.91
		l0.158,0.797c4.484,0.416,8.305,3.571,9.184,8.018c0.88,4.447-1.452,8.819-5.44,10.91l0.176,0.89
		c4.484,0.416,8.305,3.57,9.184,8.018c0.88,4.447-1.452,8.819-5.441,10.91l1.734,8.764c16.377-3.239,32.154,6.779,35.239,22.376
		l273.638-54.123c-3.085-15.597,7.69-30.867,24.067-34.106l-1.743-8.811c-4.484-0.416-8.305-3.571-9.184-8.018
		c-0.88-4.447,1.452-8.819,5.441-10.91l-0.176-0.89c-4.484-0.416-8.305-3.571-9.184-8.018c-0.88-4.447,1.452-8.819,5.44-10.91
		l-0.158-0.797c-4.484-0.416-8.305-3.571-9.184-8.018c-0.88-4.447,1.452-8.819,5.441-10.91l-0.176-0.89
		c-4.484-0.416-8.305-3.571-9.184-8.018C622.045,446.571,624.377,442.2,628.366,440.108z"/>
	<g>
		<path style="fill:#F7C14F;stroke:#F4BA51;stroke-width:0.5669;stroke-miterlimit:10;" d="M632.674,503.527
			c-0.88-4.447,1.452-8.818,5.44-10.91l-0.176-0.89c-4.484-0.416-8.305-3.571-9.184-8.018c-0.88-4.447,1.452-8.818,5.44-10.91
			l-0.158-0.797c-4.484-0.416-8.305-3.571-9.184-8.018c-0.88-4.447,1.452-8.819,5.44-10.91l-0.176-0.89
			c-4.484-0.416-8.305-3.571-9.184-8.018c-0.88-4.447,1.452-8.819,5.44-10.91l-1.554-7.858
			c-16.377,3.239-32.154-6.779-35.239-22.376l-273.638,54.123c3.085,15.597-7.69,30.867-24.067,34.106l1.564,7.905
			c4.484,0.416,8.305,3.571,9.184,8.018c0.88,4.447-1.452,8.818-5.44,10.91l0.176,0.89c4.484,0.416,8.305,3.571,9.184,8.018
			c0.88,4.447-1.452,8.818-5.44,10.91l0.158,0.797c4.484,0.416,8.305,3.57,9.184,8.018c0.88,4.447-1.452,8.818-5.441,10.91
			l0.176,0.89c4.484,0.416,8.305,3.57,9.184,8.018c0.88,4.447-1.452,8.819-5.441,10.91l1.734,8.764
			c16.377-3.239,32.154,6.779,35.239,22.376l273.638-54.123c-3.085-15.597,7.69-30.867,24.067-34.106l-1.743-8.811
			C637.374,511.128,633.553,507.974,632.674,503.527z"/>
		<path style="fill:#5B472D;" d="M569.708,416.845L339.58,462.363c-8.024,1.587-13.261,9.407-11.674,17.431l20.43,103.292
			c1.587,8.024,9.407,13.261,17.431,11.674l230.128-45.517c8.024-1.587,13.262-9.407,11.675-17.431l-20.43-103.292
			C585.552,420.495,577.732,415.258,569.708,416.845z M537.685,428.958l23.987,121.275l-163.883,32.415l-23.987-121.275
			L537.685,428.958z M353.897,581.986l-20.43-103.292c-0.981-4.958,2.255-9.789,7.213-10.77l27.561-5.451l23.987,121.275
			l-27.561,5.451C359.709,590.179,354.878,586.943,353.897,581.986z M602.008,532.912c0.981,4.958-2.255,9.789-7.212,10.77
			l-27.561,5.451l-23.987-121.275l27.561-5.451c4.958-0.981,9.789,2.255,10.769,7.213L602.008,532.912z"/>
		<g>
			<path style="fill:#5B4B2C;" d="M558.863,446.54c-0.559,0.111-0.975,0.225-1.246,0.344c-0.272,0.119-0.481,0.275-0.628,0.47
				c-0.147,0.194-0.241,0.451-0.283,0.769c-0.042,0.318-0.045,0.709-0.008,1.173c0.036,0.463,0.118,1.068,0.246,1.814l-1.055,0.209
				l-2.112-10.68l1.055-0.209c0.26,1.06,0.476,1.811,0.648,2.252c0.172,0.441,0.364,0.766,0.576,0.975
				c0.211,0.208,0.477,0.339,0.798,0.39c0.32,0.051,0.818,0.011,1.493-0.122l11.721-2.318c0.385-0.076,0.654-0.199,0.805-0.37
				c0.151-0.17,0.202-0.385,0.15-0.645c-0.061-0.309-0.307-0.715-0.737-1.221c-0.43-0.506-1.008-1.122-1.732-1.85l0.987-0.856
				l5.37,5.966l0.157,0.795c-0.936,0.125-2.224,0.35-3.861,0.674L558.863,446.54z"/>
			<path style="fill:#5B4B2C;" d="M560.664,463.319c0.093,0.472,0.198,0.847,0.313,1.125c0.115,0.278,0.257,0.49,0.426,0.637
				c0.169,0.147,0.372,0.249,0.609,0.308c0.237,0.058,0.596,0.12,1.08,0.184l0.243,1.228l-4.269,0.589l-2.353-11.894l0.694-0.137
				c1.094,0.214,2.24,0.568,3.439,1.062c1.199,0.493,2.643,1.244,4.335,2.251c1.454,0.874,2.548,1.493,3.281,1.859
				c0.8,0.402,1.48,0.686,2.038,0.851c0.558,0.165,1.073,0.261,1.544,0.288c0.471,0.027,0.932-0.004,1.386-0.094
				c0.723-0.143,1.338-0.385,1.846-0.726c0.508-0.341,0.874-0.781,1.098-1.321c0.224-0.54,0.264-1.171,0.121-1.894
				c-0.356-1.802-1.599-2.818-3.726-3.047l-0.346-1.749l2.775-0.549c0.78,1.057,1.393,2.069,1.84,3.038
				c0.447,0.968,0.75,1.857,0.91,2.666c0.354,1.792,0.229,3.223-0.375,4.294c-0.604,1.07-1.653,1.754-3.146,2.049
				c-0.511,0.101-0.991,0.143-1.439,0.127c-0.449-0.016-0.904-0.091-1.366-0.225c-0.462-0.134-0.97-0.336-1.524-0.607
				c-0.555-0.271-1.123-0.579-1.707-0.924c-0.584-0.345-1.562-0.948-2.933-1.808c-2.299-1.448-4.255-2.457-5.87-3.029
				L560.664,463.319z"/>
			<path style="fill:#5B4B2C;" d="M575.679,469.225l2.746-0.543c0.751,1.013,1.353,1.98,1.805,2.902
				c0.453,0.922,0.768,1.835,0.948,2.741c0.215,1.089,0.235,2.076,0.06,2.962c-0.176,0.885-0.536,1.608-1.081,2.166
				c-0.545,0.558-1.257,0.924-2.133,1.098c-0.819,0.162-1.572,0.14-2.258-0.064c-0.686-0.205-1.319-0.557-1.899-1.059
				c-0.58-0.501-1.185-1.18-1.815-2.036l-0.13,0.026c0.01,0.608-0.059,1.21-0.206,1.805c-0.148,0.595-0.382,1.144-0.703,1.648
				c-0.321,0.504-0.738,0.939-1.251,1.306c-0.513,0.367-1.131,0.622-1.854,0.765c-1.118,0.221-2.158,0.174-3.121-0.141
				c-0.963-0.315-1.795-0.924-2.494-1.827c-0.699-0.903-1.191-2.072-1.475-3.508c-0.164-0.829-0.247-1.741-0.248-2.737
				c-0.002-0.996,0.072-1.924,0.223-2.785l3.064-0.606l0.343,1.734c-0.936,0.535-1.575,1.125-1.918,1.768
				c-0.344,0.643-0.421,1.442-0.232,2.396c0.248,1.252,0.777,2.131,1.588,2.637c0.811,0.505,1.886,0.626,3.225,0.361
				c1.407-0.278,2.397-0.915,2.971-1.909c0.574-0.995,0.699-2.311,0.375-3.949l-0.257-1.301l1.272-0.251
				c0.334,1.285,0.801,2.332,1.402,3.139c0.6,0.807,1.276,1.362,2.026,1.664c0.751,0.302,1.54,0.371,2.369,0.207
				c1.07-0.211,1.837-0.659,2.303-1.341c0.466-0.683,0.591-1.569,0.375-2.657c-0.179-0.906-0.571-1.594-1.174-2.065
				c-0.604-0.472-1.438-0.742-2.503-0.811L575.679,469.225z"/>
			<path style="fill:#5B4B2C;" d="M565.012,493.726c0.272,0.567,0.522,0.933,0.75,1.098c0.228,0.165,0.521,0.244,0.881,0.239
				s0.895-0.08,1.608-0.221l2.37-0.469l-1.589-8.035l1.084-0.214l14.434,5.931l0.409,2.066l-12.443,2.461l0.06,0.304
				c0.11,0.558,0.231,0.951,0.36,1.174c0.129,0.225,0.314,0.397,0.552,0.514c0.239,0.119,0.607,0.198,1.106,0.239l0.217,1.098
				l-3.011,0.415l-0.686-3.469l-2.37,0.469c-0.646,0.128-1.114,0.243-1.403,0.346c-0.29,0.102-0.512,0.221-0.665,0.356
				c-0.153,0.136-0.269,0.313-0.345,0.535c-0.077,0.22-0.129,0.563-0.157,1.029l-0.708,0.14l-1.161-5.868L565.012,493.726z
				 M570.905,488.445l1.118,5.65l3.599-0.712c0.905-0.179,1.923-0.364,3.051-0.558c1.128-0.193,1.98-0.327,2.556-0.401l-0.029-0.145
				l-10.092-3.875L570.905,488.445z"/>
			<path style="fill:#5B4B2C;" d="M567.294,504.808l3.064-0.606l0.346,1.749c-0.926,0.483-1.562,1.063-1.909,1.737
				c-0.347,0.674-0.429,1.474-0.246,2.399c0.253,1.281,0.83,2.173,1.731,2.676c0.9,0.503,2.116,0.603,3.648,0.299
				c1.021-0.202,1.832-0.542,2.433-1.022c0.601-0.479,0.993-1.043,1.175-1.689c0.182-0.647,0.196-1.36,0.042-2.141
				c-0.13-0.655-0.282-1.211-0.457-1.667c-0.175-0.456-0.403-0.936-0.683-1.442l0.451-1.29l9.51-1.881l1.575,7.963
				c0.065,0.327,0.138,0.558,0.22,0.693c0.081,0.134,0.186,0.233,0.314,0.298c0.128,0.065,0.357,0.125,0.689,0.179l0.223,1.127
				l-3.396,0.446l-1.644-8.31l-6.344,1.255c0.311,0.459,0.577,0.972,0.8,1.539c0.222,0.566,0.392,1.144,0.508,1.732
				c0.227,1.147,0.194,2.209-0.098,3.188c-0.292,0.979-0.822,1.794-1.589,2.447c-0.767,0.653-1.719,1.091-2.856,1.316
				c-1.291,0.255-2.452,0.205-3.484-0.152c-1.032-0.357-1.89-0.998-2.573-1.924c-0.684-0.926-1.164-2.088-1.44-3.485
				C566.973,508.576,566.97,506.765,567.294,504.808z"/>
			<path style="fill:#5B4B2C;" d="M591.079,528.562l-0.708,0.14c-0.293-1.483-0.871-2.736-1.734-3.757
				c-0.863-1.021-1.986-1.788-3.368-2.3c-1.383-0.512-2.953-0.754-4.709-0.728l-0.029,0.156c0.738,0.695,1.32,1.409,1.745,2.141
				c0.425,0.731,0.728,1.555,0.909,2.47c0.215,1.089,0.16,2.064-0.165,2.923c-0.325,0.861-0.881,1.569-1.667,2.125
				c-0.786,0.556-1.757,0.948-2.913,1.177c-1.253,0.248-2.406,0.226-3.46-0.067c-1.054-0.292-1.955-0.887-2.703-1.785
				c-0.749-0.899-1.268-2.085-1.56-3.559c-0.417-2.11-0.077-3.832,1.021-5.165c1.097-1.334,2.923-2.253,5.477-2.758
				c1.715-0.339,3.372-0.387,4.973-0.143c1.6,0.245,3.055,0.753,4.364,1.525c1.309,0.772,2.413,1.751,3.314,2.934
				c0.9,1.183,1.531,2.49,1.894,3.92L591.079,528.562z M581.469,525.987c-0.093-0.472-0.237-0.917-0.429-1.335
				c-0.193-0.417-0.428-0.799-0.707-1.144c-0.278-0.345-0.608-0.67-0.989-0.976c-0.129-0.095-0.257-0.159-0.384-0.194
				c-0.202-0.06-0.441-0.078-0.716-0.054c-0.276,0.025-0.731,0.1-1.367,0.225c-1.84,0.364-3.181,0.95-4.023,1.757
				c-0.842,0.807-1.138,1.837-0.891,3.09c0.143,0.723,0.388,1.305,0.736,1.747c0.348,0.442,0.77,0.771,1.269,0.988
				c0.498,0.216,1.057,0.332,1.675,0.344c0.618,0.014,1.274-0.049,1.968-0.186c1.426-0.282,2.478-0.796,3.157-1.54
				C581.448,527.964,581.681,527.057,581.469,525.987z"/>
		</g>
		<g>
			<path style="fill:#5B4B2C;" d="M349.329,487.984c-0.559,0.111-0.974,0.225-1.246,0.344c-0.272,0.119-0.481,0.275-0.628,0.47
				c-0.147,0.194-0.241,0.451-0.283,0.769c-0.042,0.318-0.045,0.709-0.008,1.173c0.036,0.463,0.118,1.068,0.246,1.814l-1.055,0.209
				l-2.112-10.68l1.055-0.209c0.26,1.06,0.476,1.81,0.648,2.252c0.172,0.441,0.364,0.766,0.576,0.975
				c0.211,0.208,0.477,0.338,0.798,0.39c0.32,0.051,0.818,0.011,1.493-0.122l11.721-2.318c0.385-0.076,0.654-0.2,0.805-0.37
				c0.151-0.17,0.202-0.385,0.15-0.646c-0.061-0.309-0.307-0.715-0.737-1.221c-0.43-0.506-1.008-1.122-1.733-1.85l0.987-0.856
				l5.37,5.966l0.157,0.795c-0.936,0.125-2.224,0.35-3.861,0.674L349.329,487.984z"/>
			<path style="fill:#5B4B2C;" d="M351.131,504.763c0.093,0.472,0.198,0.847,0.313,1.125c0.115,0.278,0.257,0.49,0.426,0.637
				c0.169,0.147,0.372,0.249,0.609,0.308c0.237,0.058,0.597,0.12,1.08,0.184l0.243,1.228l-4.269,0.589l-2.352-11.894l0.694-0.137
				c1.094,0.214,2.24,0.568,3.439,1.062c1.199,0.493,2.644,1.244,4.335,2.251c1.454,0.874,2.548,1.493,3.281,1.859
				c0.8,0.402,1.48,0.686,2.038,0.851c0.558,0.165,1.073,0.261,1.544,0.288s0.932-0.004,1.386-0.094
				c0.723-0.143,1.338-0.385,1.846-0.726c0.508-0.341,0.874-0.781,1.098-1.321s0.264-1.171,0.121-1.894
				c-0.356-1.802-1.599-2.818-3.726-3.047l-0.346-1.749l2.775-0.549c0.78,1.057,1.393,2.069,1.84,3.038
				c0.447,0.968,0.75,1.856,0.91,2.666c0.354,1.792,0.229,3.223-0.375,4.294c-0.604,1.07-1.653,1.754-3.146,2.049
				c-0.511,0.101-0.991,0.143-1.439,0.127c-0.449-0.016-0.904-0.092-1.366-0.225c-0.462-0.134-0.97-0.336-1.524-0.607
				c-0.554-0.271-1.123-0.579-1.707-0.924c-0.584-0.345-1.562-0.948-2.933-1.808c-2.299-1.448-4.255-2.457-5.87-3.029
				L351.131,504.763z"/>
			<path style="fill:#5B4B2C;" d="M366.145,510.669l2.746-0.543c0.751,1.013,1.353,1.98,1.805,2.902
				c0.453,0.922,0.768,1.835,0.948,2.741c0.215,1.089,0.235,2.076,0.06,2.962c-0.176,0.885-0.536,1.608-1.081,2.166
				c-0.545,0.558-1.257,0.924-2.133,1.098c-0.819,0.162-1.572,0.14-2.258-0.064c-0.686-0.205-1.319-0.558-1.899-1.059
				c-0.58-0.501-1.185-1.18-1.814-2.036l-0.13,0.026c0.01,0.608-0.059,1.21-0.206,1.805c-0.148,0.595-0.382,1.144-0.703,1.648
				c-0.321,0.504-0.738,0.939-1.251,1.306c-0.513,0.366-1.131,0.622-1.854,0.765c-1.118,0.221-2.158,0.174-3.121-0.141
				c-0.963-0.315-1.795-0.924-2.494-1.827c-0.699-0.903-1.191-2.072-1.475-3.508c-0.164-0.829-0.247-1.741-0.248-2.737
				c-0.002-0.996,0.072-1.924,0.223-2.785l3.064-0.606l0.343,1.734c-0.936,0.535-1.575,1.125-1.918,1.768
				c-0.344,0.643-0.421,1.442-0.232,2.396c0.248,1.252,0.777,2.131,1.588,2.637c0.811,0.505,1.886,0.626,3.225,0.361
				c1.407-0.278,2.397-0.915,2.971-1.909c0.574-0.995,0.699-2.311,0.375-3.949l-0.257-1.301l1.272-0.252
				c0.334,1.286,0.801,2.332,1.402,3.139c0.6,0.807,1.276,1.362,2.026,1.664c0.751,0.302,1.54,0.371,2.369,0.207
				c1.07-0.212,1.837-0.659,2.303-1.342c0.466-0.683,0.591-1.569,0.376-2.657c-0.179-0.906-0.571-1.594-1.174-2.065
				c-0.604-0.471-1.438-0.742-2.503-0.811L366.145,510.669z"/>
			<path style="fill:#5B4B2C;" d="M355.478,535.17c0.272,0.567,0.522,0.933,0.75,1.098c0.228,0.165,0.521,0.245,0.881,0.239
				c0.359-0.006,0.895-0.08,1.608-0.221l2.37-0.469l-1.589-8.035l1.084-0.214l14.434,5.931l0.409,2.066l-12.443,2.461l0.06,0.304
				c0.11,0.558,0.23,0.951,0.36,1.174c0.129,0.225,0.314,0.397,0.552,0.514c0.239,0.119,0.607,0.198,1.106,0.239l0.217,1.098
				l-3.011,0.415l-0.686-3.469l-2.37,0.469c-0.646,0.128-1.114,0.243-1.403,0.346c-0.29,0.102-0.512,0.221-0.665,0.356
				c-0.153,0.136-0.268,0.313-0.345,0.535c-0.077,0.22-0.129,0.563-0.157,1.029l-0.708,0.14l-1.161-5.868L355.478,535.17z
				 M361.372,529.889l1.118,5.65l3.599-0.712c0.905-0.179,1.923-0.364,3.051-0.557c1.128-0.193,1.98-0.327,2.556-0.401l-0.029-0.145
				l-10.092-3.875L361.372,529.889z"/>
			<path style="fill:#5B4B2C;" d="M357.76,546.252l3.064-0.606l0.346,1.749c-0.926,0.483-1.562,1.063-1.909,1.737
				c-0.347,0.674-0.429,1.474-0.246,2.399c0.253,1.281,0.83,2.173,1.731,2.676c0.9,0.503,2.117,0.602,3.648,0.299
				c1.021-0.202,1.832-0.543,2.434-1.022c0.601-0.479,0.992-1.043,1.175-1.689c0.182-0.646,0.197-1.36,0.042-2.141
				c-0.13-0.655-0.282-1.211-0.457-1.667c-0.175-0.456-0.403-0.936-0.683-1.442l0.451-1.291l9.51-1.881l1.575,7.963
				c0.065,0.327,0.138,0.558,0.22,0.692c0.081,0.134,0.186,0.234,0.314,0.298c0.128,0.065,0.357,0.125,0.689,0.179l0.223,1.127
				l-3.396,0.446l-1.644-8.31l-6.344,1.255c0.311,0.459,0.577,0.972,0.8,1.539c0.222,0.566,0.391,1.144,0.508,1.732
				c0.227,1.147,0.194,2.209-0.098,3.188c-0.292,0.979-0.822,1.794-1.588,2.447c-0.767,0.653-1.719,1.091-2.856,1.316
				c-1.291,0.255-2.452,0.205-3.484-0.152c-1.032-0.357-1.89-0.998-2.573-1.924c-0.684-0.926-1.164-2.088-1.44-3.485
				C357.439,550.02,357.436,548.209,357.76,546.252z"/>
			<path style="fill:#5B4B2C;" d="M381.546,570.006l-0.708,0.14c-0.293-1.484-0.871-2.736-1.734-3.757
				c-0.863-1.021-1.986-1.787-3.368-2.3c-1.383-0.512-2.953-0.754-4.709-0.728l-0.029,0.156c0.738,0.695,1.32,1.409,1.745,2.141
				c0.425,0.731,0.728,1.555,0.909,2.47c0.215,1.089,0.16,2.064-0.165,2.923c-0.325,0.861-0.881,1.569-1.667,2.125
				c-0.786,0.556-1.757,0.948-2.913,1.177c-1.253,0.248-2.406,0.226-3.46-0.066c-1.054-0.292-1.955-0.887-2.703-1.785
				c-0.749-0.899-1.268-2.085-1.56-3.559c-0.417-2.11-0.077-3.832,1.021-5.165c1.098-1.334,2.923-2.253,5.477-2.758
				c1.715-0.339,3.372-0.387,4.973-0.143c1.6,0.245,3.055,0.753,4.364,1.525c1.309,0.772,2.413,1.751,3.314,2.934
				c0.9,1.183,1.531,2.49,1.894,3.92L381.546,570.006z M371.936,567.431c-0.093-0.472-0.237-0.917-0.429-1.335
				c-0.193-0.417-0.428-0.799-0.707-1.144s-0.608-0.67-0.989-0.976c-0.129-0.095-0.257-0.159-0.384-0.194
				c-0.202-0.06-0.441-0.078-0.716-0.053c-0.276,0.024-0.731,0.1-1.367,0.225c-1.84,0.364-3.181,0.95-4.023,1.757
				c-0.842,0.807-1.138,1.837-0.891,3.09c0.143,0.723,0.388,1.305,0.736,1.747c0.348,0.442,0.77,0.771,1.269,0.988
				c0.498,0.216,1.057,0.332,1.675,0.344c0.618,0.014,1.274-0.049,1.968-0.186c1.426-0.282,2.478-0.796,3.157-1.54
				C371.914,569.408,372.147,568.501,371.936,567.431z"/>
		</g>
		<g>
			<path style="fill:#584A2E;" d="M400.897,472.691l8.208-1.624l16.331,33.57l-8.988,1.778l-2.649-6.783l-6.789,1.343l0.097,7.288
				l-8.454,1.672L400.897,472.691z M406.749,481.584l0.173,12.813l4.486-0.887L406.749,481.584z"/>
			<path style="fill:#584A2E;" d="M423.085,468.302l10.333-2.044c3.097-0.613,5.813-0.393,8.15,0.657
				c2.336,1.051,4.205,2.835,5.609,5.354c1.404,2.519,2.427,5.403,3.07,8.652c1.081,5.467,0.717,10.094-1.093,13.881
				c-1.809,3.787-5.093,6.151-9.848,7.092l-9.215,1.823L423.085,468.302z M432.696,473.55l4.273,21.604l0.584-0.115
				c4.282-0.847,5.656-5.146,4.123-12.898c-0.592-2.996-1.531-5.316-2.814-6.962c-1.285-1.645-2.976-2.26-5.074-1.845
				L432.696,473.55z"/>
			<path style="fill:#584A2E;" d="M452.618,462.461l9.038-1.788l7.632,12.578l2.269-14.536l9.063-1.793l7.005,35.415l-8.073,1.597
				l-2.621-13.252c-0.663-3.351-1.201-6.78-1.612-10.286l-0.609,0.121c-0.017,1.78-0.255,4.271-0.711,7.474l-1.587,11.051
				l-5.649-9.62c-1.645-2.805-2.813-5.018-3.503-6.641l-0.635,0.125c0.92,3.142,1.737,6.515,2.45,10.12l2.621,13.252l-8.073,1.597
				L452.618,462.461z"/>
			<path style="fill:#584A2E;" d="M488.693,455.325l8.327-1.647l7.005,35.415l-8.327,1.647L488.693,455.325z"/>
			<path style="fill:#584A2E;" d="M503.824,452.332l22.366-4.424l1.421,7.185l-7.185,1.421l5.584,28.23l-8.251,1.632l-5.584-28.23
				l-6.931,1.371L503.824,452.332z"/>
		</g>
		<g>
			<path style="fill:#584930;" d="M438.581,519.393c4.282-0.847,7.978,0.102,11.089,2.845c3.11,2.744,5.22,6.917,6.328,12.519
				c1.111,5.619,0.754,10.346-1.073,14.18c-1.827,3.835-4.72,6.144-8.681,6.927c-4.113,0.813-7.638-0.292-10.575-3.316
				c-2.938-3.024-4.918-7.126-5.942-12.305c-0.71-3.588-0.797-6.916-0.26-9.986c0.536-3.07,1.648-5.54,3.335-7.413
				C434.487,520.972,436.414,519.822,438.581,519.393z M440.945,526.681c-1.659,0.328-2.739,1.536-3.241,3.622
				c-0.502,2.087-0.425,4.789,0.232,8.106c0.666,3.368,1.617,5.928,2.851,7.68c1.235,1.752,2.605,2.479,4.112,2.181
				c1.489-0.294,2.486-1.521,2.992-3.678c0.505-2.157,0.432-4.887-0.221-8.187c-0.676-3.419-1.649-5.956-2.918-7.614
				C443.484,527.133,442.215,526.43,440.945,526.681z"/>
			<path style="fill:#584930;" d="M460.038,515.756l8.403-1.662l6.256,10.423c1.861,3.097,3.354,5.8,4.479,8.11l0.432-0.085
				l-1.388-5.951l-2.747-13.887l7.921-1.567l7.005,35.415l-8.378,1.657l-6.256-10.423c-1.861-3.096-3.356-5.808-4.484-8.135
				l-0.457,0.09l1.388,5.951l2.752,13.912l-7.921,1.567L460.038,515.756z"/>
			<path style="fill:#584930;" d="M492.296,509.375l20.183-3.992l1.411,7.134l-11.932,2.36l1.29,6.524l11.12-2.199l1.366,6.905
				l-11.119,2.199l1.506,7.616l11.932-2.36l1.431,7.235l-20.183,3.992L492.296,509.375z"/>
		</g>
	</g>
</g>
<g>
	<path style="opacity:0.3;fill:#808285;" d="M525.592,282.801l-4.557-6.588c-13.73,9.496-32.192,6.594-41.236-6.482L250.386,428.403
		c9.044,13.076,5.245,31.375-8.485,40.871l4.584,6.627c4.279-1.405,9.04-0.034,11.618,3.694c2.579,3.728,2.182,8.667-0.643,12.175
		l0.516,0.746c4.279-1.405,9.04-0.034,11.618,3.694c2.579,3.728,2.182,8.667-0.643,12.175l0.462,0.668
		c4.279-1.405,9.04-0.034,11.618,3.694s2.182,8.667-0.643,12.175l0.516,0.746c4.279-1.405,9.04-0.034,11.618,3.694
		c2.579,3.728,2.182,8.667-0.643,12.175l5.082,7.348c13.73-9.496,32.192-6.594,41.236,6.482l229.413-158.672
		c-9.044-13.076-5.245-31.375,8.485-40.871l-5.109-7.387c-4.279,1.405-9.04,0.034-11.618-3.694
		c-2.579-3.728-2.182-8.667,0.643-12.175l-0.516-0.746c-4.279,1.405-9.04,0.034-11.619-3.694c-2.579-3.728-2.182-8.667,0.643-12.175
		l-0.462-0.668c-4.279,1.405-9.04,0.034-11.618-3.694c-2.579-3.728-2.182-8.667,0.643-12.175l-0.516-0.746
		c-4.279,1.405-9.04,0.034-11.618-3.694C522.37,291.248,522.768,286.309,525.592,282.801z"/>
	<g>
		<path style="fill:#F7C14F;stroke:#F4BA51;stroke-width:0.5669;stroke-miterlimit:10;" d="M554.812,339.252
			c-2.579-3.728-2.182-8.667,0.643-12.175l-0.516-0.746c-4.279,1.405-9.04,0.034-11.618-3.694
			c-2.579-3.728-2.182-8.667,0.643-12.175l-0.462-0.668c-4.279,1.405-9.04,0.034-11.618-3.694s-2.182-8.667,0.643-12.175
			l-0.516-0.746c-4.279,1.405-9.04,0.034-11.618-3.694c-2.579-3.728-2.182-8.667,0.643-12.175l-4.557-6.588
			c-13.73,9.496-32.192,6.594-41.236-6.482L245.828,422.911c9.044,13.076,5.245,31.375-8.485,40.871l4.584,6.627
			c4.279-1.405,9.04-0.034,11.618,3.694c2.579,3.728,2.182,8.667-0.643,12.175l0.516,0.746c4.279-1.405,9.04-0.034,11.618,3.694
			c2.579,3.728,2.182,8.667-0.643,12.175l0.462,0.668c4.279-1.405,9.04-0.034,11.618,3.694c2.579,3.728,2.182,8.667-0.643,12.175
			l0.516,0.746c4.279-1.405,9.04-0.034,11.618,3.694c2.579,3.728,2.182,8.667-0.643,12.175l5.082,7.348
			c13.73-9.496,32.192-6.594,41.236,6.482l229.413-158.672c-9.044-13.076-5.245-31.375,8.485-40.871l-5.109-7.387
			C562.152,344.351,557.391,342.98,554.812,339.252z"/>
		<path style="fill:#5B472D;" d="M462.523,284.837L269.588,418.279c-6.727,4.653-8.415,13.912-3.762,20.639l59.895,86.598
			c4.653,6.727,13.912,8.415,20.639,3.762l192.935-133.442c6.727-4.653,8.416-13.912,3.763-20.639l-59.895-86.598
			C478.509,281.872,469.25,280.184,462.523,284.837z M437.978,308.706L508.3,410.38l-137.397,95.03l-70.322-101.674L437.978,308.706
			z M330.383,522.292l-59.895-86.598c-2.875-4.156-1.832-9.877,2.324-12.752l23.106-15.981l70.322,101.674l-23.107,15.981
			C338.978,527.491,333.258,526.448,330.383,522.292z M538.394,378.422c2.875,4.156,1.832,9.877-2.324,12.752l-23.106,15.981
			l-70.322-101.674l23.106-15.981c4.156-2.875,9.877-1.832,12.751,2.325L538.394,378.422z"/>
		<g>
			<path style="fill:#5B4B2C;" d="M464.408,316.395c-0.469,0.324-0.804,0.595-1.006,0.812c-0.202,0.217-0.332,0.444-0.389,0.681
				c-0.057,0.237-0.042,0.509,0.047,0.818c0.088,0.309,0.241,0.669,0.46,1.079c0.218,0.41,0.534,0.932,0.948,1.565l-0.884,0.612
				l-6.193-8.954l0.884-0.612c0.66,0.869,1.158,1.471,1.492,1.807c0.334,0.336,0.639,0.558,0.917,0.665
				c0.277,0.107,0.573,0.12,0.887,0.04c0.314-0.08,0.755-0.316,1.32-0.707l9.826-6.796c0.323-0.223,0.52-0.443,0.591-0.66
				c0.071-0.217,0.031-0.434-0.119-0.652c-0.179-0.259-0.566-0.534-1.163-0.826c-0.596-0.292-1.372-0.628-2.326-1.006l0.564-1.178
				l7.302,3.332l0.461,0.666c-0.809,0.488-1.9,1.207-3.273,2.156L464.408,316.395z"/>
			<path style="fill:#5B4B2C;" d="M472.745,331.066c0.274,0.396,0.519,0.698,0.735,0.907s0.431,0.347,0.645,0.414
				c0.214,0.067,0.441,0.08,0.681,0.039c0.241-0.041,0.595-0.128,1.064-0.261l0.712,1.03l-3.68,2.241l-6.897-9.972l0.582-0.402
				c1.088-0.24,2.281-0.371,3.577-0.396c1.296-0.025,2.92,0.087,4.873,0.338c1.682,0.222,2.932,0.354,3.75,0.398
				c0.894,0.05,1.63,0.039,2.208-0.032c0.578-0.071,1.088-0.188,1.531-0.351c0.443-0.163,0.854-0.375,1.233-0.638
				c0.606-0.419,1.074-0.886,1.404-1.401c0.33-0.515,0.491-1.065,0.481-1.649c-0.01-0.584-0.225-1.179-0.644-1.785
				c-1.045-1.511-2.589-1.947-4.632-1.31l-1.014-1.466l2.326-1.609c1.136,0.659,2.102,1.343,2.898,2.053
				c0.795,0.71,1.428,1.404,1.897,2.082c1.039,1.502,1.495,2.865,1.367,4.088c-0.128,1.223-0.818,2.267-2.069,3.133
				c-0.428,0.296-0.851,0.526-1.269,0.69c-0.418,0.164-0.866,0.276-1.343,0.338c-0.477,0.061-1.024,0.078-1.64,0.051
				c-0.617-0.028-1.261-0.083-1.934-0.167c-0.673-0.084-1.81-0.247-3.41-0.489c-2.685-0.412-4.882-0.558-6.591-0.439
				L472.745,331.066z"/>
			<path style="fill:#5B4B2C;" d="M488.87,330.5l2.302-1.592c1.092,0.63,2.03,1.277,2.812,1.942
				c0.782,0.665,1.436,1.377,1.961,2.136c0.631,0.913,1.043,1.81,1.235,2.692c0.192,0.882,0.149,1.688-0.128,2.417
				c-0.278,0.73-0.784,1.349-1.519,1.857c-0.687,0.475-1.386,0.755-2.096,0.841c-0.711,0.086-1.432,0.014-2.163-0.214
				c-0.731-0.229-1.557-0.61-2.476-1.145l-0.109,0.075c0.252,0.554,0.428,1.134,0.53,1.738c0.101,0.604,0.105,1.201,0.012,1.792
				c-0.094,0.59-0.302,1.155-0.627,1.696c-0.325,0.541-0.79,1.021-1.396,1.44c-0.937,0.648-1.91,1.019-2.919,1.115
				c-1.009,0.095-2.014-0.132-3.015-0.682c-1.001-0.55-1.918-1.426-2.75-2.63c-0.481-0.695-0.92-1.498-1.318-2.411
				c-0.398-0.913-0.701-1.794-0.905-2.643l2.569-1.777l1.006,1.454c-0.645,0.864-0.996,1.659-1.054,2.386
				c-0.059,0.727,0.189,1.49,0.742,2.29c0.726,1.05,1.561,1.645,2.507,1.786c0.945,0.141,1.979-0.178,3.102-0.954
				c1.179-0.816,1.834-1.794,1.965-2.935c0.13-1.141-0.28-2.398-1.229-3.771l-0.754-1.09l1.066-0.737
				c0.819,1.046,1.664,1.819,2.536,2.321c0.872,0.501,1.713,0.741,2.522,0.719c0.809-0.022,1.56-0.273,2.255-0.754
				c0.897-0.62,1.422-1.336,1.578-2.148c0.155-0.812-0.083-1.674-0.714-2.587c-0.525-0.759-1.159-1.235-1.9-1.426
				c-0.742-0.192-1.615-0.108-2.619,0.253L488.87,330.5z"/>
			<path style="fill:#5B4B2C;" d="M488.848,357.222c0.475,0.411,0.851,0.648,1.126,0.708c0.275,0.061,0.576,0.017,0.903-0.132
				c0.327-0.148,0.789-0.43,1.387-0.843l1.987-1.374l-4.659-6.736l0.909-0.628l15.601-0.311l1.198,1.732l-10.432,7.215l0.177,0.255
				c0.323,0.467,0.59,0.78,0.798,0.934c0.208,0.155,0.446,0.24,0.711,0.252c0.266,0.014,0.636-0.06,1.11-0.222l0.637,0.921
				l-2.597,1.581l-2.011-2.908l-1.987,1.374c-0.541,0.374-0.924,0.667-1.149,0.877c-0.226,0.209-0.381,0.407-0.468,0.592
				c-0.086,0.186-0.122,0.394-0.103,0.628c0.017,0.232,0.106,0.567,0.266,1.007l-0.594,0.411l-3.403-4.92L488.848,357.222z
				 M492.15,350.031l3.276,4.737l3.017-2.087c0.759-0.525,1.618-1.1,2.576-1.727c0.958-0.626,1.686-1.089,2.185-1.387l-0.084-0.121
				l-10.801,0.467L492.15,350.031z"/>
			<path style="fill:#5B4B2C;" d="M495.357,366.478l2.569-1.777l1.014,1.466c-0.656,0.812-1.009,1.597-1.059,2.354
				c-0.05,0.756,0.193,1.523,0.73,2.298c0.743,1.074,1.627,1.663,2.654,1.765c1.026,0.103,2.181-0.291,3.466-1.179
				c0.856-0.592,1.464-1.228,1.825-1.907c0.36-0.679,0.495-1.352,0.405-2.018c-0.09-0.666-0.362-1.326-0.814-1.98
				c-0.38-0.549-0.741-0.998-1.083-1.346c-0.342-0.348-0.743-0.698-1.201-1.05l-0.101-1.363l7.973-5.514l4.617,6.676
				c0.19,0.274,0.349,0.457,0.477,0.548c0.128,0.091,0.264,0.14,0.407,0.148c0.143,0.009,0.377-0.028,0.703-0.11l0.654,0.945
				l-2.937,1.763l-4.819-6.967l-5.319,3.679c0.468,0.297,0.917,0.662,1.347,1.093c0.429,0.431,0.815,0.893,1.156,1.386
				c0.665,0.961,1.058,1.949,1.18,2.963c0.122,1.014-0.039,1.973-0.482,2.877c-0.444,0.904-1.142,1.686-2.095,2.345
				c-1.083,0.749-2.168,1.165-3.256,1.249c-1.088,0.084-2.131-0.163-3.127-0.739c-0.996-0.576-1.899-1.451-2.709-2.622
				C496.564,370.061,495.839,368.401,495.357,366.478z"/>
			<path style="fill:#5B4B2C;" d="M526.638,378.787l-0.594,0.411c-0.86-1.244-1.889-2.162-3.088-2.755
				c-1.198-0.593-2.533-0.848-4.006-0.768c-1.472,0.082-3.009,0.485-4.609,1.209l0.035,0.155c0.954,0.343,1.772,0.766,2.453,1.268
				c0.681,0.501,1.287,1.136,1.818,1.904c0.631,0.913,0.969,1.829,1.013,2.747c0.045,0.919-0.183,1.79-0.682,2.613
				c-0.5,0.823-1.234,1.57-2.203,2.24c-1.05,0.726-2.117,1.166-3.2,1.317c-1.083,0.152-2.147-0.035-3.191-0.56
				c-1.045-0.526-1.994-1.407-2.849-2.643c-1.224-1.769-1.598-3.484-1.122-5.144c0.475-1.661,1.783-3.231,3.924-4.712
				c1.438-0.994,2.939-1.698,4.504-2.112c1.565-0.413,3.102-0.527,4.61-0.34c1.508,0.186,2.911,0.644,4.208,1.371
				c1.297,0.727,2.397,1.674,3.299,2.841L526.638,378.787z M516.798,380.255c-0.274-0.396-0.582-0.747-0.926-1.053
				c-0.343-0.305-0.711-0.562-1.104-0.767c-0.393-0.206-0.825-0.372-1.296-0.501c-0.156-0.035-0.299-0.044-0.43-0.025
				c-0.209,0.026-0.436,0.104-0.678,0.236c-0.243,0.132-0.631,0.383-1.164,0.751c-1.543,1.067-2.539,2.139-2.99,3.214
				c-0.45,1.076-0.312,2.139,0.414,3.189c0.419,0.606,0.876,1.042,1.371,1.309c0.495,0.267,1.014,0.4,1.558,0.401
				c0.543,0,1.101-0.117,1.673-0.352c0.573-0.234,1.149-0.553,1.731-0.955c1.195-0.827,1.956-1.717,2.282-2.671
				C517.565,382.077,517.418,381.151,516.798,380.255z"/>
		</g>
		<g>
			<path style="fill:#5B4B2C;" d="M288.738,437.895c-0.469,0.324-0.804,0.595-1.006,0.812c-0.202,0.217-0.332,0.444-0.389,0.681
				c-0.057,0.237-0.042,0.509,0.047,0.819c0.088,0.309,0.241,0.669,0.46,1.079c0.218,0.41,0.534,0.932,0.948,1.565l-0.884,0.612
				l-6.193-8.954l0.884-0.612c0.66,0.869,1.158,1.471,1.492,1.807c0.334,0.336,0.639,0.558,0.917,0.665
				c0.277,0.107,0.573,0.12,0.887,0.04c0.314-0.08,0.755-0.316,1.32-0.707l9.826-6.796c0.323-0.223,0.52-0.443,0.591-0.66
				c0.071-0.217,0.031-0.434-0.119-0.652c-0.179-0.259-0.566-0.534-1.162-0.826c-0.596-0.293-1.372-0.628-2.326-1.006l0.564-1.178
				l7.302,3.332l0.461,0.666c-0.809,0.488-1.9,1.207-3.273,2.156L288.738,437.895z"/>
			<path style="fill:#5B4B2C;" d="M297.077,452.566c0.274,0.396,0.519,0.698,0.735,0.907c0.216,0.209,0.431,0.347,0.645,0.414
				c0.214,0.067,0.441,0.08,0.681,0.039c0.24-0.041,0.595-0.128,1.064-0.261l0.712,1.03l-3.68,2.241l-6.897-9.972l0.582-0.402
				c1.088-0.24,2.28-0.371,3.577-0.396c1.296-0.025,2.92,0.088,4.873,0.338c1.682,0.222,2.932,0.354,3.75,0.398
				c0.894,0.05,1.63,0.039,2.208-0.032c0.578-0.071,1.088-0.188,1.531-0.351c0.443-0.163,0.853-0.375,1.233-0.638
				c0.606-0.419,1.074-0.886,1.404-1.401c0.33-0.515,0.491-1.065,0.481-1.649c-0.01-0.584-0.224-1.179-0.643-1.785
				c-1.045-1.511-2.589-1.947-4.632-1.31l-1.014-1.466l2.326-1.609c1.136,0.659,2.102,1.343,2.898,2.053
				c0.795,0.71,1.428,1.404,1.897,2.082c1.039,1.502,1.495,2.865,1.367,4.088c-0.128,1.223-0.818,2.267-2.069,3.133
				c-0.428,0.296-0.851,0.526-1.269,0.69c-0.418,0.164-0.866,0.276-1.343,0.338c-0.477,0.061-1.024,0.078-1.64,0.05
				c-0.617-0.028-1.261-0.083-1.934-0.167c-0.673-0.084-1.81-0.247-3.41-0.489c-2.685-0.412-4.882-0.558-6.591-0.439
				L297.077,452.566z"/>
			<path style="fill:#5B4B2C;" d="M313.201,452l2.302-1.592c1.092,0.63,2.03,1.277,2.812,1.942c0.782,0.665,1.436,1.377,1.961,2.137
				c0.631,0.913,1.043,1.81,1.235,2.692c0.192,0.882,0.149,1.688-0.128,2.417c-0.278,0.729-0.784,1.348-1.519,1.857
				c-0.687,0.475-1.386,0.755-2.096,0.841c-0.711,0.086-1.432,0.014-2.163-0.214c-0.731-0.229-1.557-0.61-2.476-1.145l-0.109,0.076
				c0.251,0.554,0.428,1.134,0.53,1.738c0.101,0.604,0.105,1.201,0.012,1.792c-0.094,0.59-0.302,1.155-0.627,1.697
				c-0.325,0.541-0.79,1.021-1.395,1.44c-0.937,0.648-1.91,1.019-2.919,1.114c-1.009,0.095-2.014-0.132-3.015-0.682
				c-1.001-0.55-1.918-1.426-2.75-2.63c-0.481-0.695-0.92-1.499-1.318-2.411c-0.398-0.913-0.701-1.794-0.905-2.643l2.569-1.777
				l1.006,1.454c-0.645,0.864-0.996,1.659-1.054,2.386c-0.059,0.727,0.189,1.49,0.742,2.29c0.726,1.05,1.562,1.645,2.507,1.786
				c0.945,0.14,1.979-0.178,3.102-0.954c1.179-0.816,1.834-1.794,1.964-2.935c0.13-1.141-0.279-2.398-1.229-3.771l-0.754-1.091
				l1.066-0.737c0.819,1.046,1.664,1.819,2.537,2.321c0.872,0.501,1.713,0.741,2.521,0.719c0.809-0.022,1.56-0.273,2.255-0.754
				c0.897-0.62,1.422-1.336,1.578-2.148c0.155-0.812-0.083-1.674-0.714-2.587c-0.525-0.759-1.159-1.235-1.9-1.426
				c-0.742-0.192-1.615-0.108-2.619,0.253L313.201,452z"/>
			<path style="fill:#5B4B2C;" d="M313.179,478.723c0.475,0.411,0.851,0.647,1.126,0.708c0.275,0.061,0.576,0.017,0.903-0.132
				c0.327-0.148,0.789-0.43,1.387-0.843l1.987-1.374l-4.659-6.736l0.909-0.629l15.601-0.311l1.198,1.732l-10.432,7.215l0.176,0.255
				c0.323,0.468,0.59,0.78,0.798,0.934c0.208,0.155,0.446,0.24,0.712,0.252c0.266,0.014,0.636-0.06,1.11-0.222l0.637,0.921
				l-2.597,1.581l-2.011-2.908l-1.987,1.374c-0.541,0.374-0.924,0.667-1.149,0.877c-0.226,0.209-0.381,0.407-0.469,0.592
				c-0.086,0.186-0.122,0.394-0.103,0.628c0.018,0.232,0.106,0.567,0.266,1.007l-0.594,0.411l-3.403-4.92L313.179,478.723z
				 M316.481,471.531l3.276,4.737l3.017-2.087c0.759-0.525,1.618-1.1,2.576-1.727c0.958-0.626,1.686-1.089,2.185-1.387l-0.084-0.121
				l-10.801,0.467L316.481,471.531z"/>
			<path style="fill:#5B4B2C;" d="M319.688,487.978l2.569-1.777l1.014,1.466c-0.656,0.812-1.009,1.597-1.059,2.354
				c-0.05,0.756,0.193,1.523,0.73,2.298c0.743,1.074,1.627,1.663,2.654,1.765c1.026,0.103,2.181-0.291,3.466-1.179
				c0.856-0.592,1.464-1.228,1.825-1.907c0.36-0.679,0.495-1.352,0.405-2.017c-0.09-0.665-0.362-1.326-0.814-1.98
				c-0.38-0.549-0.741-0.998-1.083-1.346c-0.342-0.348-0.743-0.698-1.201-1.05l-0.101-1.363l7.973-5.514l4.618,6.676
				c0.19,0.274,0.349,0.457,0.477,0.548c0.128,0.091,0.264,0.14,0.407,0.148c0.143,0.009,0.377-0.028,0.703-0.11l0.654,0.945
				l-2.937,1.763l-4.819-6.967l-5.319,3.679c0.468,0.297,0.917,0.662,1.347,1.093c0.429,0.431,0.815,0.893,1.156,1.386
				c0.665,0.962,1.058,1.949,1.181,2.963c0.122,1.014-0.039,1.973-0.482,2.877c-0.444,0.904-1.142,1.686-2.095,2.345
				c-1.083,0.749-2.168,1.165-3.256,1.249c-1.088,0.084-2.131-0.163-3.126-0.739c-0.996-0.576-1.899-1.451-2.709-2.622
				C320.895,491.562,320.17,489.902,319.688,487.978z"/>
			<path style="fill:#5B4B2C;" d="M350.969,500.287l-0.594,0.411c-0.86-1.244-1.889-2.162-3.087-2.755
				c-1.198-0.593-2.533-0.848-4.006-0.768c-1.472,0.082-3.009,0.485-4.609,1.209l0.035,0.155c0.954,0.343,1.772,0.766,2.453,1.268
				c0.681,0.502,1.287,1.136,1.818,1.904c0.632,0.913,0.969,1.829,1.013,2.747c0.045,0.919-0.183,1.79-0.682,2.613
				c-0.5,0.823-1.234,1.57-2.203,2.24c-1.05,0.726-2.117,1.166-3.2,1.317c-1.084,0.152-2.147-0.035-3.191-0.56
				c-1.045-0.526-1.994-1.407-2.849-2.643c-1.223-1.769-1.598-3.484-1.122-5.144c0.475-1.661,1.783-3.231,3.924-4.712
				c1.438-0.994,2.939-1.699,4.504-2.112c1.565-0.413,3.102-0.527,4.61-0.34c1.508,0.186,2.911,0.644,4.208,1.371
				c1.297,0.727,2.396,1.674,3.299,2.841L350.969,500.287z M341.129,501.755c-0.274-0.396-0.582-0.747-0.926-1.053
				c-0.343-0.305-0.711-0.562-1.104-0.767c-0.393-0.206-0.825-0.372-1.296-0.501c-0.156-0.035-0.299-0.044-0.43-0.025
				c-0.209,0.026-0.436,0.104-0.678,0.236c-0.243,0.132-0.631,0.383-1.164,0.751c-1.543,1.067-2.539,2.139-2.99,3.214
				c-0.451,1.076-0.312,2.139,0.414,3.189c0.419,0.606,0.876,1.042,1.371,1.309c0.495,0.267,1.014,0.4,1.558,0.401
				c0.543,0,1.101-0.117,1.673-0.352c0.573-0.234,1.149-0.553,1.731-0.955c1.195-0.827,1.956-1.717,2.282-2.671
				C341.896,503.577,341.749,502.652,341.129,501.755z"/>
		</g>
		<g>
			<path style="fill:#584A2E;" d="M329.942,403.32l6.882-4.76l28.354,24.284l-7.535,5.212l-5.133-5.166l-5.692,3.937l2.993,6.646
				l-7.088,4.902L329.942,403.32z M338.853,409.146l5.264,11.683l3.761-2.601L338.853,409.146z"/>
			<path style="fill:#584A2E;" d="M348.544,390.454l8.663-5.992c2.597-1.796,5.175-2.677,7.736-2.645
				c2.561,0.033,4.987,0.925,7.278,2.675c2.291,1.751,4.379,3.988,6.263,6.712c3.17,4.583,4.68,8.972,4.528,13.167
				c-0.15,4.195-2.22,7.671-6.207,10.429l-7.726,5.344L348.544,390.454z M359.451,391.438l12.528,18.113l0.49-0.339
				c3.59-2.483,3.138-6.974-1.357-13.473c-1.737-2.512-3.522-4.266-5.355-5.264c-1.834-0.997-3.63-0.888-5.389,0.329
				L359.451,391.438z"/>
			<path style="fill:#584A2E;" d="M373.305,373.329l7.577-5.241l12.011,8.495l-3.711-14.236l7.598-5.255l20.536,29.691l-6.768,4.681
				l-7.684-11.11c-1.943-2.81-3.802-5.74-5.577-8.792l-0.511,0.353c0.693,1.639,1.468,4.019,2.326,7.139l2.948,10.768l-9.014-6.572
				c-2.627-1.917-4.579-3.482-5.859-4.695l-0.532,0.368c2.096,2.515,4.189,5.284,6.28,8.306l7.684,11.11l-6.768,4.681
				L373.305,373.329z"/>
			<path style="fill:#584A2E;" d="M403.549,352.41l6.981-4.828l20.536,29.691l-6.981,4.829L403.549,352.41z"/>
			<path style="fill:#584A2E;" d="M416.234,343.637l18.751-12.969l4.166,6.023l-6.023,4.166l16.37,23.668l-6.917,4.784
				l-16.37-23.668l-5.811,4.019L416.234,343.637z"/>
		</g>
		<g>
			<path style="fill:#584930;" d="M383.114,431.141c3.59-2.483,7.358-3.085,11.304-1.808c3.946,1.278,7.543,4.264,10.792,8.961
				c3.258,4.711,4.814,9.189,4.666,13.434c-0.147,4.245-1.881,7.516-5.202,9.813c-3.448,2.385-7.122,2.776-11.021,1.172
				c-3.899-1.603-7.35-4.576-10.353-8.918c-2.08-3.008-3.486-6.026-4.218-9.055c-0.732-3.029-0.696-5.738,0.105-8.128
				C379.989,434.22,381.298,432.397,383.114,431.141z M388.187,436.883c-1.391,0.962-1.9,2.5-1.529,4.613
				c0.371,2.114,1.519,4.561,3.442,7.342c1.953,2.824,3.845,4.793,5.675,5.908c1.831,1.115,3.377,1.236,4.64,0.362
				c1.249-0.863,1.675-2.385,1.279-4.566c-0.397-2.18-1.551-4.654-3.465-7.421c-1.982-2.866-3.886-4.806-5.71-5.821
				C390.695,436.286,389.251,436.147,388.187,436.883z"/>
			<path style="fill:#584930;" d="M401.345,419.255l7.045-4.873l9.891,7.067c2.941,2.099,5.387,3.983,7.34,5.653l0.362-0.25
				l-3.644-4.905l-8.052-11.642l6.641-4.593l20.536,29.691l-7.024,4.858l-9.891-7.067c-2.941-2.098-5.392-3.99-7.354-5.674
				l-0.383,0.265l3.645,4.905l8.067,11.664l-6.641,4.593L401.345,419.255z"/>
			<path style="fill:#584930;" d="M428.39,400.549l16.921-11.703l4.137,5.981l-10.004,6.919l3.783,5.47l9.322-6.448l4.004,5.789
				l-9.323,6.448l4.416,6.385l10.004-6.919l4.195,6.066l-16.921,11.703L428.39,400.549z"/>
		</g>
	</g>
</g>
<g>
	<path style="opacity:0.3;fill:#808285;" d="M370.83,193.302l-6.497-4.685c-9.765,13.541-28.134,16.979-41.03,7.679L160.148,422.543
		c12.896,9.299,15.434,27.815,5.67,41.356l6.536,4.713c3.563-2.755,8.508-3.055,12.185-0.403c3.677,2.652,4.954,7.439,3.465,11.689
		l0.736,0.531c3.563-2.755,8.508-3.055,12.185-0.403c3.677,2.652,4.954,7.439,3.465,11.689l0.659,0.475
		c3.563-2.755,8.508-3.055,12.185-0.403c3.677,2.652,4.954,7.439,3.465,11.689l0.736,0.531c3.563-2.755,8.508-3.055,12.185-0.403
		c3.677,2.652,4.954,7.439,3.465,11.689l7.246,5.226c9.764-13.54,28.134-16.979,41.03-7.679L448.515,286.59
		c-12.896-9.299-15.434-27.815-5.67-41.356l-7.285-5.253c-3.563,2.755-8.508,3.055-12.185,0.403
		c-3.677-2.652-4.954-7.439-3.465-11.689l-0.736-0.531c-3.563,2.755-8.508,3.055-12.185,0.403
		c-3.677-2.652-4.954-7.439-3.465-11.689l-0.659-0.475c-3.563,2.755-8.508,3.055-12.185,0.403
		c-3.677-2.652-4.954-7.439-3.465-11.689l-0.736-0.531c-3.563,2.755-8.508,3.055-12.185,0.403
		C370.618,202.339,369.341,197.552,370.83,193.302z"/>
	<g>
		<path style="fill:#F7C14F;stroke:#F4BA51;stroke-width:0.5669;stroke-miterlimit:10;" d="M417.243,236.733
			c-3.677-2.652-4.954-7.439-3.465-11.689l-0.736-0.531c-3.563,2.755-8.508,3.055-12.185,0.403
			c-3.677-2.651-4.954-7.438-3.465-11.689l-0.659-0.475c-3.563,2.755-8.508,3.055-12.185,0.403
			c-3.677-2.652-4.954-7.439-3.465-11.689l-0.736-0.531c-3.563,2.755-8.508,3.055-12.185,0.403
			c-3.677-2.651-4.954-7.438-3.465-11.689l-6.497-4.685c-9.764,13.541-28.134,16.979-41.03,7.679L154.016,418.892
			c12.896,9.3,15.434,27.815,5.67,41.356l6.536,4.713c3.563-2.755,8.508-3.055,12.185-0.403c3.677,2.652,4.954,7.439,3.465,11.689
			l0.736,0.531c3.563-2.755,8.508-3.055,12.185-0.403c3.677,2.651,4.954,7.439,3.465,11.689l0.659,0.475
			c3.563-2.755,8.508-3.055,12.185-0.403c3.677,2.652,4.954,7.439,3.465,11.689l0.736,0.531c3.563-2.755,8.508-3.055,12.185-0.403
			c3.677,2.651,4.954,7.439,3.465,11.689l7.246,5.226c9.765-13.541,28.134-16.979,41.03-7.679l163.154-226.247
			c-12.896-9.299-15.434-27.815-5.67-41.356l-7.285-5.253C425.865,239.085,420.92,239.385,417.243,236.733z"/>
		<path style="fill:#5B472D;" d="M312.071,216.309L174.859,406.582c-4.784,6.634-3.279,15.925,3.355,20.709l85.403,61.587
			c6.634,4.784,15.925,3.279,20.709-3.355l137.212-190.273c4.784-6.635,3.279-15.925-3.355-20.71l-85.403-61.587
			C326.146,208.169,316.856,209.674,312.071,216.309z M296.92,247.011l100.271,72.309L299.477,454.82l-100.271-72.309
			L296.92,247.011z M266.934,484.279l-85.403-61.587c-4.099-2.956-5.029-8.696-2.073-12.795l16.433-22.788l100.271,72.309
			l-16.433,22.788C276.773,486.305,271.033,487.235,266.934,484.279z M414.867,279.139c4.099,2.956,5.029,8.696,2.073,12.795
			l-16.433,22.788l-100.271-72.309l16.433-22.788c2.956-4.099,8.696-5.029,12.795-2.073L414.867,279.139z"/>
		<g>
			<path style="fill:#5B4B2C;" d="M324.399,245.42c-0.333,0.462-0.559,0.829-0.676,1.102c-0.118,0.272-0.164,0.53-0.139,0.772
				c0.025,0.242,0.131,0.494,0.318,0.756c0.186,0.262,0.451,0.55,0.794,0.863c0.343,0.314,0.815,0.7,1.417,1.158l-0.629,0.872
				l-8.83-6.368l0.629-0.872c0.913,0.598,1.583,0.999,2.01,1.204c0.427,0.205,0.789,0.312,1.086,0.32
				c0.297,0.008,0.58-0.078,0.85-0.259c0.269-0.181,0.606-0.55,1.008-1.108l6.988-9.691c0.23-0.318,0.342-0.592,0.337-0.82
				c-0.006-0.228-0.115-0.419-0.331-0.574c-0.255-0.184-0.712-0.314-1.372-0.39c-0.66-0.076-1.503-0.133-2.529-0.171l0.138-1.299
				l7.996,0.699l0.657,0.474c-0.599,0.73-1.387,1.773-2.364,3.127L324.399,245.42z"/>
			<path style="fill:#5B4B2C;" d="M337.163,256.458c0.39,0.281,0.722,0.484,0.996,0.609c0.273,0.125,0.522,0.183,0.746,0.175
				c0.224-0.008,0.442-0.072,0.655-0.19s0.518-0.32,0.916-0.602l1.016,0.732l-2.719,3.343l-9.834-7.092l0.414-0.574
				c0.945-0.59,2.025-1.113,3.239-1.57c1.213-0.457,2.782-0.894,4.705-1.311c1.659-0.353,2.882-0.646,3.667-0.879
				c0.86-0.252,1.55-0.508,2.071-0.768c0.521-0.26,0.962-0.541,1.325-0.843c0.363-0.301,0.679-0.639,0.949-1.014
				c0.431-0.598,0.716-1.194,0.855-1.79c0.139-0.596,0.106-1.167-0.098-1.715c-0.205-0.547-0.606-1.036-1.203-1.467
				c-1.49-1.074-3.091-0.969-4.803,0.314l-1.446-1.043l1.654-2.294c1.291,0.241,2.43,0.563,3.417,0.966
				c0.987,0.403,1.815,0.846,2.484,1.328c1.482,1.069,2.367,2.2,2.655,3.395c0.288,1.195-0.012,2.41-0.903,3.645
				c-0.305,0.422-0.626,0.781-0.966,1.075c-0.339,0.294-0.723,0.55-1.153,0.767s-0.939,0.416-1.529,0.596
				c-0.59,0.18-1.216,0.343-1.878,0.489c-0.663,0.146-1.788,0.372-3.378,0.679c-2.668,0.51-4.788,1.106-6.358,1.79L337.163,256.458z
				"/>
			<path style="fill:#5B4B2C;" d="M352.17,250.534l1.637-2.27c1.24,0.228,2.34,0.525,3.3,0.89c0.96,0.365,1.814,0.818,2.563,1.358
				c0.9,0.649,1.588,1.357,2.064,2.124c0.476,0.767,0.705,1.541,0.687,2.321c-0.018,0.78-0.288,1.533-0.811,2.258
				c-0.488,0.677-1.053,1.175-1.694,1.493c-0.642,0.318-1.345,0.492-2.111,0.521c-0.766,0.029-1.671-0.055-2.716-0.251l-0.078,0.107
				c0.422,0.438,0.783,0.925,1.081,1.461c0.298,0.536,0.501,1.097,0.611,1.685c0.109,0.587,0.101,1.19-0.024,1.808
				c-0.125,0.618-0.403,1.226-0.834,1.824c-0.667,0.924-1.46,1.599-2.379,2.026c-0.919,0.427-1.943,0.549-3.07,0.366
				c-1.128-0.183-2.284-0.703-3.471-1.559c-0.685-0.494-1.368-1.105-2.048-1.831c-0.681-0.727-1.26-1.456-1.737-2.188l1.827-2.533
				l1.434,1.034c-0.319,1.03-0.384,1.897-0.196,2.601c0.188,0.705,0.676,1.341,1.465,1.91c1.035,0.747,2.022,1.028,2.96,0.845
				c0.937-0.184,1.806-0.829,2.604-1.936c0.839-1.163,1.128-2.304,0.87-3.423c-0.259-1.119-1.065-2.167-2.419-3.143l-1.075-0.776
				l0.758-1.052c1.121,0.712,2.177,1.158,3.167,1.339c0.989,0.181,1.862,0.126,2.617-0.165c0.755-0.291,1.379-0.779,1.873-1.464
				c0.638-0.884,0.894-1.735,0.769-2.552c-0.126-0.817-0.638-1.55-1.538-2.199c-0.749-0.54-1.505-0.776-2.268-0.709
				c-0.763,0.067-1.558,0.439-2.384,1.114L352.17,250.534z"/>
			<path style="fill:#5B4B2C;" d="M361.085,275.725c0.586,0.229,1.018,0.326,1.298,0.291s0.548-0.177,0.807-0.426
				c0.259-0.249,0.6-0.669,1.025-1.259l1.413-1.96l-6.643-4.791l0.646-0.896l14.599-5.51l1.708,1.232l-7.419,10.288l0.252,0.182
				c0.461,0.332,0.817,0.538,1.064,0.613c0.248,0.076,0.5,0.077,0.755-0.001c0.255-0.076,0.579-0.27,0.972-0.58l0.908,0.655
				l-1.919,2.358l-2.868-2.068l-1.413,1.96c-0.385,0.534-0.648,0.938-0.79,1.211c-0.143,0.272-0.223,0.511-0.244,0.714
				c-0.019,0.204,0.017,0.412,0.113,0.626c0.094,0.213,0.29,0.499,0.587,0.86l-0.422,0.586l-4.852-3.499L361.085,275.725z
				 M361.792,267.844l4.672,3.369l2.146-2.975c0.54-0.749,1.157-1.578,1.85-2.489c0.693-0.911,1.224-1.59,1.595-2.037l-0.12-0.086
				l-10.023,4.052L361.792,267.844z"/>
			<path style="fill:#5B4B2C;" d="M370.314,282.272l1.827-2.533l1.446,1.043c-0.347,0.985-0.417,1.842-0.211,2.573
				c0.206,0.73,0.691,1.37,1.456,1.922c1.059,0.764,2.09,1.023,3.091,0.776c1.001-0.246,1.959-1.003,2.872-2.27
				c0.609-0.844,0.969-1.647,1.082-2.407c0.112-0.76,0.014-1.439-0.293-2.037c-0.308-0.597-0.784-1.129-1.43-1.594
				c-0.542-0.391-1.033-0.693-1.471-0.907c-0.439-0.213-0.933-0.41-1.483-0.588l-0.551-1.251l5.67-7.862l6.584,4.748
				c0.271,0.195,0.482,0.314,0.633,0.356c0.151,0.043,0.295,0.044,0.433,0.004c0.138-0.04,0.346-0.153,0.626-0.339l0.932,0.672
				l-2.178,2.643l-6.871-4.955l-3.783,5.246c0.54,0.124,1.086,0.317,1.635,0.579c0.549,0.263,1.067,0.57,1.553,0.92
				c0.948,0.684,1.649,1.483,2.103,2.398c0.454,0.915,0.623,1.872,0.508,2.873c-0.116,1.001-0.513,1.971-1.191,2.91
				c-0.77,1.068-1.653,1.823-2.651,2.266c-0.998,0.443-2.063,0.559-3.194,0.349c-1.132-0.21-2.275-0.733-3.43-1.565
				C372.649,285.246,371.411,283.923,370.314,282.272z"/>
			<path style="fill:#5B4B2C;" d="M403.909,283.413l-0.422,0.586c-1.227-0.884-2.504-1.406-3.831-1.564
				c-1.327-0.158-2.671,0.048-4.032,0.616c-1.36,0.569-2.673,1.463-3.94,2.681l0.085,0.134c1.014,0.005,1.926,0.13,2.736,0.375
				c0.809,0.245,1.593,0.64,2.35,1.186c0.9,0.649,1.525,1.399,1.873,2.25c0.35,0.852,0.426,1.749,0.23,2.691
				c-0.196,0.943-0.638,1.892-1.327,2.848c-0.747,1.036-1.605,1.806-2.575,2.311c-0.97,0.505-2.035,0.685-3.194,0.539
				c-1.16-0.147-2.35-0.659-3.569-1.538c-1.744-1.258-2.671-2.749-2.777-4.473c-0.107-1.724,0.6-3.642,2.123-5.753
				c1.022-1.418,2.202-2.583,3.539-3.497c1.337-0.913,2.747-1.534,4.231-1.862c1.484-0.329,2.959-0.366,4.424-0.115
				c1.465,0.251,2.818,0.776,4.059,1.574L403.909,283.413z M395.127,288.087c-0.39-0.281-0.798-0.509-1.224-0.683
				c-0.425-0.173-0.858-0.292-1.297-0.354c-0.439-0.062-0.902-0.075-1.389-0.039c-0.159,0.019-0.296,0.059-0.413,0.12
				c-0.189,0.094-0.376,0.244-0.56,0.45c-0.185,0.206-0.467,0.572-0.846,1.097c-1.097,1.522-1.678,2.865-1.743,4.029
				c-0.065,1.164,0.421,2.12,1.456,2.867c0.598,0.431,1.174,0.69,1.73,0.775c0.556,0.086,1.089,0.038,1.602-0.143
				c0.512-0.182,0.999-0.478,1.459-0.891c0.461-0.412,0.898-0.905,1.312-1.479c0.85-1.179,1.269-2.272,1.257-3.28
				C396.459,289.547,396.011,288.724,395.127,288.087z"/>
		</g>
		<g>
			<path style="fill:#5B4B2C;" d="M199.467,418.665c-0.333,0.462-0.559,0.829-0.676,1.102c-0.118,0.272-0.164,0.53-0.139,0.772
				c0.025,0.242,0.131,0.494,0.318,0.756c0.186,0.262,0.451,0.549,0.794,0.863c0.343,0.314,0.815,0.7,1.417,1.158l-0.629,0.872
				l-8.83-6.368l0.629-0.872c0.913,0.598,1.583,0.999,2.01,1.204c0.427,0.205,0.789,0.312,1.086,0.32
				c0.297,0.008,0.58-0.078,0.85-0.259c0.269-0.181,0.605-0.55,1.008-1.108l6.988-9.691c0.23-0.318,0.342-0.592,0.337-0.82
				c-0.006-0.228-0.115-0.419-0.33-0.574c-0.255-0.184-0.712-0.314-1.372-0.39c-0.66-0.076-1.503-0.133-2.529-0.171l0.138-1.299
				l7.996,0.699l0.657,0.474c-0.599,0.73-1.387,1.773-2.364,3.127L199.467,418.665z"/>
			<path style="fill:#5B4B2C;" d="M212.23,429.703c0.39,0.281,0.722,0.484,0.996,0.609c0.273,0.125,0.522,0.183,0.746,0.175
				c0.224-0.008,0.442-0.072,0.655-0.191c0.213-0.119,0.518-0.319,0.915-0.602l1.016,0.733l-2.719,3.343l-9.834-7.092l0.414-0.574
				c0.946-0.59,2.025-1.112,3.239-1.569c1.213-0.457,2.781-0.894,4.705-1.311c1.659-0.353,2.882-0.646,3.667-0.879
				c0.86-0.252,1.55-0.508,2.071-0.768c0.521-0.26,0.962-0.541,1.325-0.843c0.363-0.302,0.679-0.639,0.949-1.014
				c0.431-0.597,0.716-1.194,0.855-1.79c0.139-0.596,0.106-1.168-0.098-1.715c-0.205-0.547-0.606-1.036-1.203-1.467
				c-1.49-1.074-3.091-0.969-4.804,0.314l-1.446-1.043l1.654-2.294c1.291,0.241,2.43,0.563,3.417,0.966
				c0.987,0.403,1.815,0.846,2.484,1.328c1.482,1.068,2.367,2.2,2.656,3.395c0.288,1.195-0.012,2.41-0.903,3.645
				c-0.305,0.423-0.627,0.781-0.966,1.075c-0.339,0.294-0.723,0.55-1.153,0.767c-0.429,0.217-0.939,0.416-1.529,0.596
				c-0.59,0.18-1.216,0.343-1.878,0.489c-0.663,0.146-1.788,0.372-3.378,0.679c-2.668,0.51-4.788,1.106-6.358,1.79L212.23,429.703z"
				/>
			<path style="fill:#5B4B2C;" d="M227.237,423.779l1.637-2.27c1.24,0.228,2.34,0.525,3.3,0.89c0.96,0.365,1.814,0.818,2.563,1.358
				c0.9,0.649,1.588,1.357,2.064,2.124c0.476,0.767,0.705,1.541,0.687,2.321c-0.018,0.78-0.288,1.533-0.811,2.258
				c-0.488,0.677-1.053,1.175-1.695,1.493c-0.641,0.318-1.345,0.492-2.111,0.521c-0.766,0.029-1.671-0.055-2.716-0.251l-0.078,0.107
				c0.422,0.438,0.783,0.925,1.081,1.461c0.298,0.536,0.501,1.097,0.611,1.685c0.109,0.587,0.101,1.19-0.024,1.808
				c-0.125,0.618-0.403,1.226-0.834,1.824c-0.667,0.924-1.46,1.599-2.379,2.026c-0.919,0.427-1.943,0.549-3.07,0.365
				c-1.128-0.183-2.284-0.703-3.471-1.559c-0.685-0.494-1.368-1.105-2.049-1.831c-0.681-0.727-1.26-1.456-1.737-2.188l1.827-2.533
				l1.434,1.034c-0.319,1.03-0.384,1.897-0.196,2.601c0.188,0.705,0.676,1.341,1.465,1.91c1.035,0.747,2.022,1.029,2.96,0.845
				c0.937-0.184,1.806-0.829,2.604-1.936c0.839-1.163,1.128-2.304,0.87-3.423c-0.259-1.119-1.065-2.167-2.419-3.143l-1.075-0.775
				l0.758-1.052c1.121,0.712,2.177,1.158,3.166,1.339c0.989,0.181,1.862,0.126,2.617-0.165c0.755-0.291,1.379-0.779,1.873-1.464
				c0.638-0.884,0.894-1.735,0.768-2.552c-0.126-0.817-0.638-1.55-1.538-2.199c-0.749-0.54-1.505-0.776-2.268-0.709
				c-0.763,0.067-1.558,0.439-2.384,1.114L227.237,423.779z"/>
			<path style="fill:#5B4B2C;" d="M236.152,448.97c0.585,0.229,1.018,0.326,1.298,0.291c0.279-0.035,0.548-0.177,0.807-0.426
				c0.259-0.249,0.6-0.669,1.025-1.259l1.413-1.96l-6.643-4.791l0.646-0.896l14.599-5.51l1.708,1.232l-7.419,10.288l0.252,0.182
				c0.461,0.332,0.817,0.538,1.064,0.613c0.248,0.077,0.5,0.077,0.755-0.001c0.256-0.076,0.579-0.27,0.972-0.58l0.908,0.655
				l-1.919,2.358l-2.868-2.068l-1.413,1.96c-0.385,0.534-0.648,0.938-0.79,1.211c-0.143,0.272-0.223,0.511-0.244,0.714
				c-0.019,0.204,0.017,0.412,0.113,0.626c0.094,0.213,0.29,0.499,0.588,0.859l-0.422,0.586l-4.852-3.499L236.152,448.97z
				 M236.859,441.089l4.672,3.369l2.146-2.975c0.54-0.749,1.157-1.578,1.85-2.489c0.693-0.911,1.225-1.59,1.595-2.037l-0.12-0.086
				l-10.023,4.051L236.859,441.089z"/>
			<path style="fill:#5B4B2C;" d="M245.381,455.517l1.827-2.533l1.446,1.043c-0.347,0.985-0.417,1.842-0.211,2.573
				c0.206,0.729,0.691,1.37,1.456,1.922c1.059,0.764,2.089,1.023,3.091,0.776c1.001-0.246,1.959-1.003,2.872-2.27
				c0.609-0.844,0.969-1.647,1.082-2.407c0.112-0.76,0.014-1.439-0.293-2.037c-0.308-0.597-0.784-1.129-1.43-1.594
				c-0.542-0.391-1.033-0.693-1.471-0.907c-0.439-0.214-0.933-0.41-1.483-0.588l-0.551-1.251l5.67-7.863l6.584,4.748
				c0.271,0.195,0.482,0.314,0.633,0.357c0.151,0.043,0.295,0.044,0.433,0.004c0.138-0.04,0.346-0.153,0.626-0.339l0.932,0.672
				l-2.178,2.643l-6.871-4.955l-3.783,5.246c0.54,0.124,1.085,0.317,1.635,0.579c0.549,0.263,1.067,0.57,1.553,0.92
				c0.948,0.684,1.649,1.483,2.103,2.398c0.454,0.915,0.623,1.872,0.508,2.873c-0.116,1.001-0.513,1.971-1.191,2.91
				c-0.77,1.068-1.653,1.823-2.651,2.266c-0.998,0.443-2.063,0.559-3.194,0.349c-1.132-0.21-2.275-0.733-3.43-1.565
				C247.716,458.49,246.479,457.168,245.381,455.517z"/>
			<path style="fill:#5B4B2C;" d="M278.977,456.658l-0.422,0.586c-1.227-0.884-2.503-1.406-3.831-1.564
				c-1.327-0.158-2.671,0.048-4.032,0.616c-1.36,0.569-2.673,1.463-3.94,2.681l0.085,0.134c1.014,0.005,1.926,0.13,2.736,0.375
				c0.809,0.245,1.593,0.64,2.35,1.186c0.901,0.649,1.525,1.4,1.873,2.25c0.35,0.852,0.426,1.749,0.23,2.691
				c-0.196,0.943-0.638,1.892-1.327,2.848c-0.747,1.036-1.605,1.806-2.575,2.311c-0.97,0.505-2.035,0.685-3.194,0.539
				c-1.16-0.147-2.35-0.659-3.568-1.538c-1.745-1.258-2.671-2.749-2.777-4.473c-0.107-1.724,0.6-3.641,2.123-5.753
				c1.022-1.418,2.202-2.583,3.539-3.497c1.337-0.913,2.747-1.534,4.231-1.862c1.484-0.328,2.959-0.366,4.424-0.115
				c1.465,0.251,2.818,0.776,4.059,1.574L278.977,456.658z M270.194,461.332c-0.39-0.281-0.799-0.509-1.224-0.683
				c-0.425-0.173-0.858-0.292-1.297-0.354c-0.439-0.062-0.902-0.075-1.389-0.039c-0.159,0.019-0.297,0.059-0.413,0.12
				c-0.189,0.094-0.376,0.244-0.56,0.45c-0.185,0.206-0.467,0.572-0.846,1.097c-1.097,1.522-1.678,2.865-1.743,4.029
				c-0.065,1.164,0.421,2.12,1.457,2.867c0.597,0.431,1.174,0.689,1.73,0.775c0.556,0.086,1.089,0.038,1.602-0.143
				c0.512-0.182,0.999-0.478,1.459-0.891c0.461-0.412,0.898-0.905,1.312-1.479c0.85-1.179,1.269-2.272,1.257-3.28
				C271.527,462.792,271.078,461.969,270.194,461.332z"/>
		</g>
		<g>
			<path style="fill:#584A2E;" d="M226.738,372.303l4.894-6.787l34.842,13.405l-5.359,7.431l-6.565-3.152l-4.048,5.613l5.043,5.263
				l-5.041,6.99L226.738,372.303z M237.084,374.814l8.867,9.251l2.675-3.709L237.084,374.814z"/>
			<path style="fill:#584A2E;" d="M239.968,353.958l6.161-8.543c1.847-2.561,3.982-4.254,6.407-5.079
				c2.424-0.825,5.009-0.796,7.754,0.088c2.745,0.884,5.46,2.294,8.147,4.232c4.52,3.259,7.41,6.891,8.67,10.895
				c1.261,4.003,0.473,7.972-2.363,11.904l-5.495,7.619L239.968,353.958z M250.575,351.238l17.863,12.882l0.348-0.483
				c2.553-3.54,0.625-7.621-5.784-12.243c-2.477-1.786-4.746-2.843-6.807-3.17c-2.062-0.327-3.718,0.377-4.969,2.112
				L250.575,351.238z"/>
			<path style="fill:#584A2E;" d="M257.577,329.539l5.389-7.473l14.16,3.99l-8.257-12.176l5.404-7.494l29.281,21.116l-4.813,6.675
				l-10.957-7.901c-2.771-1.998-5.503-4.138-8.196-6.421l-0.363,0.504c1.202,1.313,2.728,3.297,4.579,5.95l6.378,9.162l-10.693-3.18
				c-3.116-0.928-5.48-1.75-7.092-2.466l-0.378,0.525c2.816,1.67,5.715,3.579,8.695,5.728l10.957,7.901l-4.814,6.675
				L257.577,329.539z"/>
			<path style="fill:#584A2E;" d="M279.086,299.712l4.965-6.885l29.282,21.116l-4.965,6.885L279.086,299.712z"/>
			<path style="fill:#584A2E;" d="M288.108,287.202l13.335-18.492l5.94,4.284l-4.284,5.94l23.341,16.832l-4.919,6.822
				l-23.341-16.832l-4.132,5.73L288.108,287.202z"/>
		</g>
		<g>
			<path style="fill:#584930;" d="M286.152,380.743c2.553-3.54,5.903-5.368,10.049-5.484c4.146-0.115,8.535,1.497,13.167,4.837
				c4.646,3.35,7.609,7.051,8.889,11.1c1.281,4.05,0.74,7.712-1.621,10.987c-2.452,3.4-5.784,4.997-9.995,4.789
				c-4.211-0.207-8.457-1.855-12.739-4.943c-2.966-2.139-5.301-4.514-7.003-7.124c-1.702-2.61-2.575-5.175-2.619-7.695
				C284.236,384.69,284.86,382.534,286.152,380.743z M292.853,384.459c-0.989,1.372-0.955,2.991,0.101,4.859
				c1.056,1.868,2.956,3.791,5.699,5.769c2.785,2.008,5.226,3.232,7.323,3.67c2.098,0.439,3.596,0.035,4.494-1.21
				c0.888-1.231,0.781-2.808-0.322-4.731c-1.103-1.922-3.018-3.867-5.747-5.835c-2.827-2.038-5.269-3.23-7.328-3.577
				C295.017,383.058,293.609,383.409,292.853,384.459z"/>
			<path style="fill:#584930;" d="M299.359,363.445l5.01-6.948l11.685,3.353c3.473,0.995,6.409,1.952,8.808,2.874l0.257-0.357
				l-5.075-3.404l-11.482-8.28l4.723-6.549l29.282,21.116l-4.995,6.927l-11.685-3.353c-3.473-0.994-6.416-1.957-8.829-2.889
				l-0.272,0.378l5.075,3.404l11.503,8.295l-4.723,6.549L299.359,363.445z"/>
			<path style="fill:#584930;" d="M318.593,336.774l12.034-16.687l5.898,4.253l-7.114,9.865l5.394,3.89l6.63-9.194l5.709,4.117
				l-6.63,9.194l6.297,4.541l7.114-9.865l5.982,4.314l-12.034,16.687L318.593,336.774z"/>
		</g>
	</g>
</g>
</svg>
